<?xml version="1.0" encoding="UTF-8" standalone="no"?>
<svg
   version="1.1"
   x="0px"
   y="0px"
   viewBox="0 0 133 133"
   enable-background="new 0 0 100 100"
   xml:space="preserve"
   id="svg53"
   sodipodi:docname="cross.svg"
   width="133"
   height="133"
   inkscape:version="1.3.2 (091e20e, 2023-11-25, custom)"
   xmlns:inkscape="http://www.inkscape.org/namespaces/inkscape"
   xmlns:sodipodi="http://sodipodi.sourceforge.net/DTD/sodipodi-0.dtd"
   xmlns="http://www.w3.org/2000/svg"
   xmlns:svg="http://www.w3.org/2000/svg"><defs
     id="defs53" /><sodipodi:namedview
     id="namedview53"
     pagecolor="#ffffff"
     bordercolor="#000000"
     borderopacity="0.25"
     inkscape:showpageshadow="2"
     inkscape:pageopacity="0.0"
     inkscape:pagecheckerboard="0"
     inkscape:deskcolor="#d1d1d1"
     inkscape:zoom="6.888"
     inkscape:cx="50.014518"
     inkscape:cy="62.5"
     inkscape:window-width="1920"
     inkscape:window-height="1057"
     inkscape:window-x="-8"
     inkscape:window-y="-8"
     inkscape:window-maximized="1"
     inkscape:current-layer="svg53" /><rect
     x="24"
     y="39"
     width="5"
     height="5"
     id="rect1"
     style="fill:#ffffff" /><rect
     x="29"
     y="34"
     width="5"
     height="5"
     id="rect2"
     style="fill:#ffffff" /><rect
     x="34"
     y="29"
     width="5"
     height="5"
     id="rect3"
     style="fill:#ffffff" /><rect
     x="39"
     y="24"
     width="5"
     height="5"
     id="rect4"
     style="fill:#ffffff" /><rect
     x="44"
     y="29"
     width="5"
     height="5"
     id="rect5"
     style="fill:#ffffff" /><rect
     x="49"
     y="34"
     width="5"
     height="5"
     id="rect6"
     style="fill:#ffffff" /><rect
     x="54"
     y="39"
     width="5"
     height="5"
     id="rect7"
     style="fill:#ffffff" /><rect
     x="59"
     y="44"
     width="5"
     height="5"
     id="rect8"
     style="fill:#ffffff" /><rect
     x="64"
     y="49"
     width="5"
     height="5"
     id="rect9"
     style="fill:#ffffff" /><rect
     x="29"
     y="44"
     width="5"
     height="5"
     id="rect10"
     style="fill:#ffffff" /><rect
     x="34"
     y="49"
     width="5"
     height="5"
     id="rect11"
     style="fill:#ffffff" /><rect
     x="39"
     y="54"
     width="5"
     height="5"
     id="rect12"
     style="fill:#ffffff" /><rect
     x="44"
     y="59"
     width="5"
     height="5"
     id="rect13"
     style="fill:#ffffff" /><rect
     x="89"
     y="24"
     width="5"
     height="5"
     id="rect14"
     style="fill:#ffffff" /><rect
     x="94"
     y="29"
     width="5"
     height="5"
     id="rect15"
     style="fill:#ffffff" /><rect
     x="99"
     y="34"
     width="5"
     height="5"
     id="rect16"
     style="fill:#ffffff" /><rect
     x="104"
     y="39"
     width="5"
     height="5"
     id="rect17"
     style="fill:#ffffff" /><rect
     x="99"
     y="44"
     width="5"
     height="5"
     id="rect18"
     style="fill:#ffffff" /><rect
     x="94"
     y="49"
     width="5"
     height="5"
     id="rect19"
     style="fill:#ffffff" /><rect
     x="89"
     y="54"
     width="5"
     height="5"
     id="rect20"
     style="fill:#ffffff" /><rect
     x="84"
     y="59"
     width="5"
     height="5"
     id="rect21"
     style="fill:#ffffff" /><rect
     x="79"
     y="64"
     width="5"
     height="5"
     id="rect22"
     style="fill:#ffffff" /><rect
     x="84"
     y="29"
     width="5"
     height="5"
     id="rect23"
     style="fill:#ffffff" /><rect
     x="79"
     y="34"
     width="5"
     height="5"
     id="rect24"
     style="fill:#ffffff" /><rect
     x="74"
     y="39"
     width="5"
     height="5"
     id="rect25"
     style="fill:#ffffff" /><rect
     x="69"
     y="44"
     width="5"
     height="5"
     id="rect26"
     style="fill:#ffffff" /><rect
     x="104"
     y="89"
     width="5"
     height="5"
     id="rect27"
     style="fill:#ffffff" /><rect
     x="99"
     y="94"
     width="5"
     height="5"
     id="rect28"
     style="fill:#ffffff" /><rect
     x="94"
     y="99"
     width="5"
     height="5"
     id="rect29"
     style="fill:#ffffff" /><rect
     x="89"
     y="104"
     width="5"
     height="5"
     id="rect30"
     style="fill:#ffffff" /><rect
     x="84"
     y="99"
     width="5"
     height="5"
     id="rect31"
     style="fill:#ffffff" /><rect
     x="79"
     y="94"
     width="5"
     height="5"
     id="rect32"
     style="fill:#ffffff" /><rect
     x="74"
     y="89"
     width="5"
     height="5"
     id="rect33"
     style="fill:#ffffff" /><rect
     x="69"
     y="84"
     width="5"
     height="5"
     id="rect34"
     style="fill:#ffffff" /><rect
     x="64"
     y="79"
     width="5"
     height="5"
     id="rect35"
     style="fill:#ffffff" /><rect
     x="99"
     y="84"
     width="5"
     height="5"
     id="rect36"
     style="fill:#ffffff" /><rect
     x="94"
     y="79"
     width="5"
     height="5"
     id="rect37"
     style="fill:#ffffff" /><rect
     x="89"
     y="74"
     width="5"
     height="5"
     id="rect38"
     style="fill:#ffffff" /><rect
     x="84"
     y="69"
     width="5"
     height="5"
     id="rect39"
     style="fill:#ffffff" /><rect
     x="39"
     y="104"
     width="5"
     height="5"
     id="rect40"
     style="fill:#ffffff" /><rect
     x="34"
     y="99"
     width="5"
     height="5"
     id="rect41"
     style="fill:#ffffff" /><rect
     x="29"
     y="94"
     width="5"
     height="5"
     id="rect42"
     style="fill:#ffffff" /><rect
     x="24"
     y="89"
     width="5"
     height="5"
     id="rect43"
     style="fill:#ffffff" /><rect
     x="29"
     y="84"
     width="5"
     height="5"
     id="rect44"
     style="fill:#ffffff" /><rect
     x="34"
     y="79"
     width="5"
     height="5"
     id="rect45"
     style="fill:#ffffff" /><rect
     x="39"
     y="74"
     width="5"
     height="5"
     id="rect46"
     style="fill:#ffffff" /><rect
     x="44"
     y="69"
     width="5"
     height="5"
     id="rect47"
     style="fill:#ffffff" /><rect
     x="49"
     y="64"
     width="5"
     height="5"
     id="rect48"
     style="fill:#ffffff" /><rect
     x="44"
     y="99"
     width="5"
     height="5"
     id="rect49"
     style="fill:#ffffff" /><rect
     x="49"
     y="94"
     width="5"
     height="5"
     id="rect50"
     style="fill:#ffffff" /><rect
     x="54"
     y="89"
     width="5"
     height="5"
     id="rect51"
     style="fill:#ffffff" /><rect
     x="59"
     y="84"
     width="5"
     height="5"
     id="rect52"
     style="fill:#ffffff" /></svg>
