<svg width="2500" height="1000" viewBox="0 0 2500 1000" fill="none" xmlns="http://www.w3.org/2000/svg">
<path d="M968 596.5V382H1011.5V466H1095.8V382H1139.3V596.5H1095.8V502H1011.5V596.5H968Z" fill="#D631B9"/>
<path d="M1172.2 646.9V614.8H1186.6C1201.8 614.8 1209.4 607.8 1209.4 593.8C1209.4 587 1205.5 573.1 1197.7 552.1L1156.3 442.6H1199.2L1222 511.9L1231.9 545.5H1232.5C1235.3 532.5 1238.3 521.3 1241.5 511.9L1263.1 442.6H1304.2L1250.5 600.4C1244.5 618 1237.7 630.1 1230.1 636.7C1222.7 643.5 1211.4 646.9 1196.2 646.9H1172.2Z" fill="#D631B9"/>
<path d="M1318.02 646.9V442.6H1357.32V461.8H1358.22C1369.62 446.2 1384.72 438.4 1403.52 438.4C1423.72 438.4 1439.92 445.9 1452.12 460.9C1464.32 475.9 1470.42 495.5 1470.42 519.7C1470.42 544.5 1464.32 564.3 1452.12 579.1C1439.92 593.7 1423.82 601 1403.82 601C1383.82 601 1369.02 593.7 1359.42 579.1H1358.82V646.9H1318.02ZM1395.12 567.1C1405.52 567.1 1413.72 563 1419.72 554.8C1425.92 546.6 1429.02 535.3 1429.02 520.9C1429.02 505.5 1426.12 493.4 1420.32 484.6C1414.52 475.8 1405.62 471.4 1393.62 471.4C1381.42 471.4 1372.42 476 1366.62 485.2C1360.82 494.2 1357.92 506.1 1357.92 520.9C1357.92 535.1 1361.12 546.4 1367.52 554.8C1373.92 563 1383.12 567.1 1395.12 567.1Z" fill="#D631B9"/>
<path d="M1561.71 601C1536.91 601 1517.41 593.4 1503.21 578.2C1489.01 562.8 1481.91 543.2 1481.91 519.4C1481.91 496.4 1489.01 477.2 1503.21 461.8C1517.41 446.2 1535.61 438.4 1557.81 438.4C1582.01 438.4 1600.71 446.8 1613.91 463.6C1627.11 480.4 1633.71 502.9 1633.71 531.1H1522.11C1523.71 543.3 1527.81 552.8 1534.41 559.6C1541.01 566.2 1550.01 569.5 1561.41 569.5C1576.41 569.5 1586.31 563.2 1591.11 550.6H1631.31C1628.31 565 1620.71 577 1608.51 586.6C1596.31 596.2 1580.71 601 1561.71 601ZM1558.41 469.9C1538.61 469.9 1526.71 480.9 1522.71 502.9H1591.11C1590.51 493.1 1587.21 485.2 1581.21 479.2C1575.21 473 1567.61 469.9 1558.41 469.9Z" fill="#D631B9"/>
<path d="M1691.89 442.6V467.2H1692.79C1697.59 458.2 1702.89 451.6 1708.69 447.4C1714.49 443 1721.79 440.8 1730.59 440.8C1734.79 440.8 1737.99 441.2 1740.19 442V477.7H1739.29C1725.49 476.3 1714.39 479.3 1705.99 486.7C1697.59 494.1 1693.39 505.7 1693.39 521.5V596.5H1652.59V442.6H1691.89Z" fill="#D631B9"/>
<path d="M1758.37 596.5V382H1799.17V596.5H1758.37Z" fill="#D631B9"/>
<path d="M1922.93 596.5C1920.93 593.9 1919.33 588.2 1918.13 579.4H1917.53C1913.13 586 1907.53 591.1 1900.73 594.7C1893.93 598.3 1884.43 600.1 1872.23 600.1C1856.03 600.1 1843.03 596 1833.23 587.8C1823.43 579.6 1818.53 568 1818.53 553C1818.53 537.4 1823.93 526 1834.73 518.8C1845.53 511.4 1860.73 506.3 1880.33 503.5C1894.73 501.5 1904.53 499.5 1909.73 497.5C1914.93 495.3 1917.53 491.5 1917.53 486.1C1917.53 480.5 1915.33 476.1 1910.93 472.9C1906.53 469.5 1900.13 467.8 1891.73 467.8C1873.13 467.8 1863.23 475 1862.03 489.4H1825.73C1826.33 474.8 1832.23 462.7 1843.43 453.1C1854.63 443.5 1870.83 438.7 1892.03 438.7C1935.23 438.7 1956.83 457.6 1956.83 495.4V573.7C1956.83 585.3 1958.63 592.4 1962.23 595V596.5H1922.93ZM1882.13 571.6C1893.33 571.6 1902.13 568.7 1908.53 562.9C1915.13 557.1 1918.43 550.2 1918.43 542.2V519.1C1914.03 521.7 1904.53 524.7 1889.93 528.1C1878.33 530.7 1870.13 533.7 1865.33 537.1C1860.53 540.3 1858.13 545.3 1858.13 552.1C1858.13 565.1 1866.13 571.6 1882.13 571.6Z" fill="#D631B9"/>
<path d="M2022.67 442.6V463.6H2023.57C2034.17 446.8 2049.37 438.4 2069.17 438.4C2084.97 438.4 2097.77 443.8 2107.57 454.6C2117.37 465.2 2122.27 479 2122.27 496V596.5H2081.47V502C2081.47 493.6 2079.07 486.8 2074.27 481.6C2069.67 476.4 2063.17 473.8 2054.77 473.8C2045.77 473.8 2038.27 477.1 2032.27 483.7C2026.47 490.3 2023.57 498.8 2023.57 509.2V596.5H1982.77V442.6H2022.67Z" fill="#D631B9"/>
<path d="M2219.71 601C2194.91 601 2175.41 593.4 2161.21 578.2C2147.01 562.8 2139.91 543.2 2139.91 519.4C2139.91 496.4 2147.01 477.2 2161.21 461.8C2175.41 446.2 2193.61 438.4 2215.81 438.4C2240.01 438.4 2258.71 446.8 2271.91 463.6C2285.11 480.4 2291.71 502.9 2291.71 531.1H2180.11C2181.71 543.3 2185.81 552.8 2192.41 559.6C2199.01 566.2 2208.01 569.5 2219.41 569.5C2234.41 569.5 2244.31 563.2 2249.11 550.6H2289.31C2286.31 565 2278.71 577 2266.51 586.6C2254.31 596.2 2238.71 601 2219.71 601ZM2216.41 469.9C2196.61 469.9 2184.71 480.9 2180.71 502.9H2249.11C2248.51 493.1 2245.21 485.2 2239.21 479.2C2233.21 473 2225.61 469.9 2216.41 469.9Z" fill="#D631B9"/>
<path d="M1003 596.5V382H1046.5V466H1130.8V382H1174.3V596.5H1130.8V502H1046.5V596.5H1003Z" fill="white"/>
<path d="M1207.2 646.9V614.8H1221.6C1236.8 614.8 1244.4 607.8 1244.4 593.8C1244.4 587 1240.5 573.1 1232.7 552.1L1191.3 442.6H1234.2L1257 511.9L1266.9 545.5H1267.5C1270.3 532.5 1273.3 521.3 1276.5 511.9L1298.1 442.6H1339.2L1285.5 600.4C1279.5 618 1272.7 630.1 1265.1 636.7C1257.7 643.5 1246.4 646.9 1231.2 646.9H1207.2Z" fill="white"/>
<path d="M1353.02 646.9V442.6H1392.32V461.8H1393.22C1404.62 446.2 1419.72 438.4 1438.52 438.4C1458.72 438.4 1474.92 445.9 1487.12 460.9C1499.32 475.9 1505.42 495.5 1505.42 519.7C1505.42 544.5 1499.32 564.3 1487.12 579.1C1474.92 593.7 1458.82 601 1438.82 601C1418.82 601 1404.02 593.7 1394.42 579.1H1393.82V646.9H1353.02ZM1430.12 567.1C1440.52 567.1 1448.72 563 1454.72 554.8C1460.92 546.6 1464.02 535.3 1464.02 520.9C1464.02 505.5 1461.12 493.4 1455.32 484.6C1449.52 475.8 1440.62 471.4 1428.62 471.4C1416.42 471.4 1407.42 476 1401.62 485.2C1395.82 494.2 1392.92 506.1 1392.92 520.9C1392.92 535.1 1396.12 546.4 1402.52 554.8C1408.92 563 1418.12 567.1 1430.12 567.1Z" fill="white"/>
<path d="M1596.71 601C1571.91 601 1552.41 593.4 1538.21 578.2C1524.01 562.8 1516.91 543.2 1516.91 519.4C1516.91 496.4 1524.01 477.2 1538.21 461.8C1552.41 446.2 1570.61 438.4 1592.81 438.4C1617.01 438.4 1635.71 446.8 1648.91 463.6C1662.11 480.4 1668.71 502.9 1668.71 531.1H1557.11C1558.71 543.3 1562.81 552.8 1569.41 559.6C1576.01 566.2 1585.01 569.5 1596.41 569.5C1611.41 569.5 1621.31 563.2 1626.11 550.6H1666.31C1663.31 565 1655.71 577 1643.51 586.6C1631.31 596.2 1615.71 601 1596.71 601ZM1593.41 469.9C1573.61 469.9 1561.71 480.9 1557.71 502.9H1626.11C1625.51 493.1 1622.21 485.2 1616.21 479.2C1610.21 473 1602.61 469.9 1593.41 469.9Z" fill="white"/>
<path d="M1726.89 442.6V467.2H1727.79C1732.59 458.2 1737.89 451.6 1743.69 447.4C1749.49 443 1756.79 440.8 1765.59 440.8C1769.79 440.8 1772.99 441.2 1775.19 442V477.7H1774.29C1760.49 476.3 1749.39 479.3 1740.99 486.7C1732.59 494.1 1728.39 505.7 1728.39 521.5V596.5H1687.59V442.6H1726.89Z" fill="white"/>
<path d="M1793.37 596.5V382H1834.17V596.5H1793.37Z" fill="white"/>
<path d="M1957.93 596.5C1955.93 593.9 1954.33 588.2 1953.13 579.4H1952.53C1948.13 586 1942.53 591.1 1935.73 594.7C1928.93 598.3 1919.43 600.1 1907.23 600.1C1891.03 600.1 1878.03 596 1868.23 587.8C1858.43 579.6 1853.53 568 1853.53 553C1853.53 537.4 1858.93 526 1869.73 518.8C1880.53 511.4 1895.73 506.3 1915.33 503.5C1929.73 501.5 1939.53 499.5 1944.73 497.5C1949.93 495.3 1952.53 491.5 1952.53 486.1C1952.53 480.5 1950.33 476.1 1945.93 472.9C1941.53 469.5 1935.13 467.8 1926.73 467.8C1908.13 467.8 1898.23 475 1897.03 489.4H1860.73C1861.33 474.8 1867.23 462.7 1878.43 453.1C1889.63 443.5 1905.83 438.7 1927.03 438.7C1970.23 438.7 1991.83 457.6 1991.83 495.4V573.7C1991.83 585.3 1993.63 592.4 1997.23 595V596.5H1957.93ZM1917.13 571.6C1928.33 571.6 1937.13 568.7 1943.53 562.9C1950.13 557.1 1953.43 550.2 1953.43 542.2V519.1C1949.03 521.7 1939.53 524.7 1924.93 528.1C1913.33 530.7 1905.13 533.7 1900.33 537.1C1895.53 540.3 1893.13 545.3 1893.13 552.1C1893.13 565.1 1901.13 571.6 1917.13 571.6Z" fill="white"/>
<path d="M2057.67 442.6V463.6H2058.57C2069.17 446.8 2084.37 438.4 2104.17 438.4C2119.97 438.4 2132.77 443.8 2142.57 454.6C2152.37 465.2 2157.27 479 2157.27 496V596.5H2116.47V502C2116.47 493.6 2114.07 486.8 2109.27 481.6C2104.67 476.4 2098.17 473.8 2089.77 473.8C2080.77 473.8 2073.27 477.1 2067.27 483.7C2061.47 490.3 2058.57 498.8 2058.57 509.2V596.5H2017.77V442.6H2057.67Z" fill="white"/>
<path d="M2254.71 601C2229.91 601 2210.41 593.4 2196.21 578.2C2182.01 562.8 2174.91 543.2 2174.91 519.4C2174.91 496.4 2182.01 477.2 2196.21 461.8C2210.41 446.2 2228.61 438.4 2250.81 438.4C2275.01 438.4 2293.71 446.8 2306.91 463.6C2320.11 480.4 2326.71 502.9 2326.71 531.1H2215.11C2216.71 543.3 2220.81 552.8 2227.41 559.6C2234.01 566.2 2243.01 569.5 2254.41 569.5C2269.41 569.5 2279.31 563.2 2284.11 550.6H2324.31C2321.31 565 2313.71 577 2301.51 586.6C2289.31 596.2 2273.71 601 2254.71 601ZM2251.41 469.9C2231.61 469.9 2219.71 480.9 2215.71 502.9H2284.11C2283.51 493.1 2280.21 485.2 2274.21 479.2C2268.21 473 2260.61 469.9 2251.41 469.9Z" fill="white"/>
<path d="M545.652 253H646.119C659.826 253 672.089 260.959 676.874 272.961L765.058 494.148C765.739 495.854 765.747 497.731 765.081 499.443L764.587 500.714L764.582 500.726L676.769 726.524C672.054 738.646 659.726 746.716 645.923 746.716H545.471C539.822 746.716 535.862 741.506 537.724 736.523L628.271 494.148L537.946 263.299C535.989 258.297 539.952 253 545.652 253Z" fill="#D631B9"/>
<path d="M283.393 253H383.86C397.567 253 409.83 260.959 414.614 272.961L502.799 494.148C503.479 495.854 503.487 497.731 502.822 499.443L502.327 500.714L502.322 500.726L414.509 726.524C409.795 738.646 397.467 746.716 383.664 746.716H283.212C277.563 746.716 273.603 741.506 275.465 736.523L366.012 494.148L275.687 263.299C273.73 258.297 277.693 253 283.393 253Z" fill="#D631B9"/>
<path d="M613.826 447H472V554H613.826L637 498.971L613.826 447Z" fill="#D631B9"/>
<path d="M603.652 253H704.119C717.826 253 730.089 260.959 734.874 272.961L823.058 494.148C823.739 495.854 823.747 497.731 823.081 499.443L822.587 500.714L822.582 500.726L734.769 726.524C730.054 738.646 717.726 746.716 703.923 746.716H603.471C597.822 746.716 593.862 741.506 595.724 736.523L686.271 494.148L595.946 263.299C593.989 258.297 597.952 253 603.652 253Z" fill="white"/>
<path d="M341.393 253H441.86C455.567 253 467.83 260.959 472.614 272.961L560.799 494.148C561.479 495.854 561.487 497.731 560.822 499.443L560.327 500.714L560.322 500.726L472.509 726.524C467.795 738.646 455.467 746.716 441.664 746.716H341.212C335.563 746.716 331.603 741.506 333.465 736.523L424.012 494.148L333.687 263.299C331.73 258.297 335.693 253 341.393 253Z" fill="white"/>
<path d="M671.826 447H530V554H671.826L695 498.971L671.826 447Z" fill="white"/>
</svg>
