<svg xmlns="http://www.w3.org/2000/svg" width="1280px" height="fit" fill="none" viewBox="0 0 122 32"
    class=" md:w-[92px] md:h-6 lg:w-[107px] lg:h-7 xl:w-[122px] xl:h-8 ">
    <g fill="#fff" clip-path="url(#logo_svg__a)">
        <path
            d="M30.934 32c-.029-.031-.055-.082-.086-.086-.27-.041-.54-.058-.806-.11a5 5 0 0 1-.875-.231 9 9 0 0 1-1.231-.584 6.7 6.7 0 0 1-1.125-.816c-.449-.417-.887-.857-1.247-1.35-.306-.42-.496-.926-.726-1.397a4 4 0 0 1-.25-.62c-.073-.236-.124-.478-.175-.72-.365-1.691-.181-3.406-.196-5.11-.028-3.194-.008-6.39-.008-9.586v-.337h7.652v.378c0 4.206-.006 8.413.008 12.619 0 .467.163.918.45 1.302.17.227.364.437.55.651.335.386.788.533 1.27.619.14.024.275.081.416.095.636.066 1.194-.173 1.745-.455.512-.26.802-.708 1.057-1.192.245-.465.335-.957.333-1.483-.009-4.052-.005-8.103-.005-12.154v-.38h7.652v.32c0 4.297-.004 8.593.006 12.887 0 .45.19.85.478 1.198.106.129.188.282.306.4.4.398.875.663 1.437.76.275.046.563.126.828.09.564-.08 1.117-.205 1.576-.605.424-.37.763-.79.963-1.31.084-.219.16-.46.16-.692.01-4.23.006-8.462.006-12.69v-.368h7.635v20.56c-.876-.069-1.713-.171-2.531-.44-.822-.272-1.523-.747-2.229-1.233-.71-.49-1.17-1.21-1.755-1.85-.484.776-1.02 1.425-1.655 1.979-.394.344-.863.6-1.286.916-.492.37-1.092.481-1.643.708-.186.078-.4.094-.602.122-.282.043-.567.07-.849.11-.029.005-.049.056-.074.084h-1.714c-.02-.028-.04-.085-.06-.083-.411.018-.801-.076-1.187-.208-.392-.133-.806-.213-1.175-.39a7.1 7.1 0 0 1-2.15-1.607c-.163-.177-.357-.328-.502-.518-.224-.298-.418-.618-.632-.939-.053.04-.098.06-.127.096-.261.333-.502.688-.786 1-.357.392-.718.798-1.14 1.11-.6.445-1.252.819-1.974 1.066-.614.21-1.227.392-1.882.386-.061 0-.122.057-.186.087h-1.665zM121.271 13.709c-.39.396-.783.79-1.169 1.19-.135.14-.237.314-.378.449-.473.453-.963.89-1.437 1.345-.389.375-.763.765-1.143 1.15-.534.542-1.071 1.079-1.6 1.623-.532.551-1.053 1.115-1.587 1.666-.145.147-.333.253-.48.398-.492.482-.974.973-1.459 1.46l-.774.77c-.471.472-.935.954-1.42 1.409-.102.096-.294.137-.445.137-2.015.008-4.031.006-6.046.006-1.804 0-3.606.002-5.41-.004-.219 0-.382.055-.537.218-.306.323-.635.625-.94.945-.895.867-1.797 1.729-2.683 2.602-.881.872-1.749 1.757-2.6 2.615h-2.16c.262-.245.499-.453.72-.678.56-.565 1.11-1.14 1.67-1.706.49-.492.99-.974 1.483-1.463 1.132-1.13 2.27-2.254 3.39-3.395.114-.116.175-.33.177-.5q.014-5.721.002-11.443a.77.77 0 0 1 .245-.604c.708-.692 1.406-1.394 2.106-2.092 1-.998 1.998-2 3.005-2.992.151-.15.343-.258.567-.425v11.883c.129-.078.21-.109.267-.164.347-.339.698-.673 1.023-1.03.086-.094.116-.266.118-.4q.01-5.685 0-11.37c0-.346.076-.605.353-.825.241-.192.441-.433.66-.65.991-.989 1.979-1.983 2.983-2.96.194-.19.429-.325.752-.325 4.137.012 8.274.008 12.411.008.114 0 .228-.006.342-.01v13.162zm-2.239.071q-.023-.036-.047-.073h-.287c-3.043 0-6.086.004-9.13-.006a.74.74 0 0 0-.612.27c-.332.379-.667.76-1.022 1.12-.219.22-.496.381-.713.604-.714.73-1.408 1.482-2.12 2.212-.239.245-.533.437-.772.682-.845.865-1.675 1.745-2.516 2.612-.143.147-.327.255-.476.398q-.663.642-1.314 1.296c-.23.23-.451.468-.718.745.14.019.21.035.28.035q4.613 0 9.226-.002c.09 0 .204-.027.266-.086.857-.824 1.706-1.653 2.555-2.486q.67-.655 1.331-1.32c.408-.41.812-.827 1.218-1.241 1.602-1.6 3.27-3.137 4.853-4.758zm-9.296-2.855 2.931-2.943c-.004-.033.002-.127-.025-.208a2.1 2.1 0 0 1 .012-1.427c.3-.85 1.203-1.477 2.103-1.498.391-.008.714.135 1.061.276.59.24 1.21 1.19 1.224 1.814.019.837-.306 1.515-.991 1.986-.594.41-1.254.557-1.968.316a.4.4 0 0 0-.31.037q-.301.203-.559.457-.99.969-1.962 1.955c-.069.07-.094.18-.163.319h8.778V2.237h-10.129v8.69zM68.88 32c-.075-.031-.147-.08-.226-.09-.315-.043-.645-.027-.943-.119q-.767-.234-1.494-.571a7.5 7.5 0 0 1-1.54-.962c-.47-.373-.814-.838-1.167-1.302-.246-.324-.497-.655-.675-1.018a7.7 7.7 0 0 1-.498-1.35c-.112-.418-.163-.854-.212-1.287-.053-.478-.098-.96-.1-1.439-.008-4.155-.004-8.313-.004-12.468v-.35h7.649v.332c0 4.228-.004 8.46.006 12.688 0 .45.15.878.433 1.245.106.139.2.288.31.425.292.365.696.58 1.114.747.237.095.51.108.772.13.261.023.377.11.38.37.004 1.345 0 2.69.001 4.032 0 .184-.081.298-.244.384-.427.219-.882.341-1.353.41-.22.033-.441.064-.66.105-.047.008-.088.057-.13.087h-1.42zM23.587 31.592h-8.89c-2.296-3.547-4.602-7.113-6.943-10.727-.01.16-.023.275-.023.39 0 2.747.008 5.494-.008 8.239-.004.681-.094 1.361-.145 2.078H0V4.174h7.731v.371q.002 5.342-.002 10.685c0 .418.165.777.37 1.114.157.26.375.482.58.71.346.388.824.613 1.297.682.714.104 1.447.08 2.106-.345.625-.402 1.064-.935 1.264-1.647.073-.265.102-.551.104-.829.01-1.165.004-2.33.004-3.496v-.3c.198-.122 7.32-.157 7.654-.04v.273c0 1.753.008 3.504-.009 5.257-.002.29-.073.586-.16.866-.172.545-.38 1.077-.57 1.616-.017.045-.01.096-.027.133-.628 1.21-1.6 2.09-2.753 2.835.29.45.561.871.829 1.294.214.336.422.677.636 1.012.235.365.482.724.715 1.092.204.322.392.657.598.98.236.369.49.73.732 1.098q.445.669.882 1.345c.229.353.447.714.671 1.069.286.449.576.896.856 1.347.044.071.044.171.075.296zM74.575 4.172h7.71V31.58h-7.71zM61.008 4.79 65.847 0l4.857 4.823-1.216 1.21c-1.123 1.12-2.243 2.241-3.37 3.357-.087.088-.216.135-.324.198-1.623-1.626-3.206-3.212-4.786-4.798">
        </path>
    </g>
    <defs>
        <clipPath id="logo_svg__a">
            <path fill="#fff" d="M0 0h121.277v32H0z"></path>
        </clipPath>
    </defs>
</svg>