<?xml version="1.0" encoding="UTF-8" standalone="no"?>
<!-- Created with Inkscape (http://www.inkscape.org/) -->

<svg
   width="24mm"
   height="4mm"
   viewBox="0 0 24 4"
   version="1.1"
   id="svg1"
   inkscape:version="1.3.2 (091e20e, 2023-11-25, custom)"
   sodipodi:docname="logo.svg"
   xmlns:inkscape="http://www.inkscape.org/namespaces/inkscape"
   xmlns:sodipodi="http://sodipodi.sourceforge.net/DTD/sodipodi-0.dtd"
   xmlns="http://www.w3.org/2000/svg"
   xmlns:svg="http://www.w3.org/2000/svg">
  <sodipodi:namedview
     id="namedview1"
     pagecolor="#ffffff"
     bordercolor="#000000"
     borderopacity="0.25"
     inkscape:showpageshadow="2"
     inkscape:pageopacity="0.0"
     inkscape:pagecheckerboard="0"
     inkscape:deskcolor="#d1d1d1"
     inkscape:document-units="mm"
     inkscape:zoom="3.3258399"
     inkscape:cx="65.096339"
     inkscape:cy="31.119959"
     inkscape:window-width="1920"
     inkscape:window-height="1057"
     inkscape:window-x="-8"
     inkscape:window-y="-8"
     inkscape:window-maximized="1"
     inkscape:current-layer="layer1" />
  <defs
     id="defs1" />
  <g
     inkscape:label="Layer 1"
     inkscape:groupmode="layer"
     id="layer1">
    <path
       style="font-size:5.96838px;font-family:'Square Space';-inkscape-font-specification:'Square Space';stroke-width:0.497364;fill:#ffffff"
       d="M 4.1778661,-1.9073486e-6 V 0.25067005 L 0.6028065,3.8257297 H 4.1778661 V 4.1778641 H 1.1920929e-7 V 3.9271921 L 0.10146258,3.8257297 3.5750597,0.35213251 H 1.1920929e-7 V -1.9073486e-6 Z m 6.2667939,0 V 0.35213251 H 10.092526 9.4718144 6.6189287 V 1.9098797 H 9.9552531 V 2.2679825 H 6.6189287 V 3.8257297 H 9.4718144 10.092526 10.44466 V 4.1778641 H 6.2667943 V 2.2679825 1.9098797 -1.9073486e-6 Z m 6.266795,0 V 1.9098797 v 0 0.3581028 0 H 16.35932 14.801573 l 1.909882,1.9098816 H 16.210111 L 14.300229,2.2679825 H 12.885723 V 3.2050181 3.8257297 4.1778641 H 12.533589 V -1.9073486e-6 Z M 12.885723,1.9098797 H 16.35932 V 0.35213251 H 12.885723 Z M 22.978249,-1.9073486e-6 V 4.1778641 h -0.352135 v 0 h -3.473597 v 0 H 18.800383 V -1.9073486e-6 Z M 19.152517,3.8257297 h 3.473597 V 3.2050181 0.35213251 H 19.152517 V 3.2050181 Z"
       id="text1"
       transform="scale(1.0444665,0.95742657)"
       aria-label="Z E R O" />
  </g>
</svg>
