<?xml version="1.0" encoding="UTF-8"?>
<!DOCTYPE svg PUBLIC "-//W3C//DTD SVG 1.1//EN" "http://www.w3.org/Graphics/SVG/1.1/DTD/svg11.dtd">
<svg xmlns="http://www.w3.org/2000/svg" version="1.1" width="1691px" height="400px" style="shape-rendering:geometricPrecision; text-rendering:geometricPrecision; image-rendering:optimizeQuality; fill-rule:evenodd; clip-rule:evenodd" xmlns:xlink="http://www.w3.org/1999/xlink">
<g><path style="opacity:0.995" fill="#fefefe" d="M 107.5,-0.5 C 195.5,-0.5 283.5,-0.5 371.5,-0.5C 385.817,3.65168 394.984,12.985 399,27.5C 403.974,48.2179 397.807,64.3845 380.5,76C 377.595,77.2862 374.595,78.2862 371.5,79C 283.5,79.6667 195.5,79.6667 107.5,79C 94.5771,75.7419 85.7437,67.9086 81,55.5C 79.4471,46.2284 79.1138,36.895 80,27.5C 84.0159,12.985 93.1825,3.65168 107.5,-0.5 Z"/></g>
<g><path style="opacity:0.971" fill="#fefefe" d="M 1339.5,36.5 C 1353.58,35.8616 1367.41,36.5283 1381,38.5C 1381.67,135.833 1381.67,233.167 1381,330.5C 1380.63,331.416 1380.13,332.25 1379.5,333C 1366.5,333.667 1353.5,333.667 1340.5,333C 1340,332.5 1339.5,332 1339,331.5C 1338.67,324.5 1338.33,317.5 1338,310.5C 1328.08,317.21 1318.25,324.043 1308.5,331C 1306.61,331.973 1304.61,332.64 1302.5,333C 1286.08,334.09 1269.75,333.424 1253.5,331C 1228.39,323.536 1210.89,307.703 1201,283.5C 1198.87,277.332 1197.54,270.999 1197,264.5C 1196.33,239.167 1196.33,213.833 1197,188.5C 1201.25,154.92 1219.41,132.754 1251.5,122C 1254.83,121.333 1258.17,120.667 1261.5,120C 1275.83,119.333 1290.17,119.333 1304.5,120C 1315.81,126.657 1326.81,133.823 1337.5,141.5C 1338.17,106.433 1338.84,71.4334 1339.5,36.5 Z M 1265.5,162.5 C 1274.17,162.334 1282.84,162.5 1291.5,163C 1306.97,172.97 1322.3,183.137 1337.5,193.5C 1338.67,215.159 1338.83,236.826 1338,258.5C 1322.69,269.815 1306.86,280.315 1290.5,290C 1282.5,290.667 1274.5,290.667 1266.5,290C 1252.33,286.5 1243.5,277.667 1240,263.5C 1239.04,237.451 1239.37,211.451 1241,185.5C 1245.52,173.813 1253.68,166.146 1265.5,162.5 Z"/></g>
<g><path style="opacity:0.955" fill="#fefffe" d="M 893.5,46.5 C 919.356,46.2065 928.856,58.5398 922,83.5C 912.263,96.5154 900.097,99.3488 885.5,92C 871.352,78.6227 871.019,64.956 884.5,51C 887.437,49.1991 890.437,47.6991 893.5,46.5 Z"/></g>
<g><path style="opacity:0.955" fill="#fdfdfd" d="M 1690.5,65.5 C 1690.5,69.5 1690.5,73.5 1690.5,77.5C 1684.65,92.7631 1673.65,98.5965 1657.5,95C 1643.16,88.6632 1637.99,77.8298 1642,62.5C 1650.39,46.3687 1662.89,42.2021 1679.5,50C 1684.98,53.9622 1688.64,59.1289 1690.5,65.5 Z"/></g>
<g><path style="opacity:0.992" fill="#fefefe" d="M -0.5,128.5 C -0.5,122.5 -0.5,116.5 -0.5,110.5C 9.12561,83.8518 27.7923,74.3518 55.5,82C 74.5783,91.9849 82.7449,107.818 80,129.5C 81.8333,147.333 91.6667,157.167 109.5,159C 196.833,159.333 284.167,159.667 371.5,160C 384.398,163.23 393.231,171.064 398,183.5C 400,194.167 400,204.833 398,215.5C 393.231,227.936 384.398,235.77 371.5,239C 283.5,239.667 195.5,239.667 107.5,239C 92.9735,235.14 83.8068,225.973 80,211.5C 84.9846,173.489 68.4846,155.989 30.5,159C 14.3186,154.651 3.98523,144.484 -0.5,128.5 Z"/></g>
<g><path style="opacity:0.97" fill="#fefefe" d="M 706.5,119.5 C 725.836,119.333 745.17,119.5 764.5,120C 798.459,126.124 817.459,146.291 821.5,180.5C 821.674,182.693 821.007,184.527 819.5,186C 806.5,186.667 793.5,186.667 780.5,186C 779.144,179.94 776.978,174.107 774,168.5C 770.361,164.266 765.861,161.432 760.5,160C 743.167,159.333 725.833,159.333 708.5,160C 695.45,163.271 691.283,171.104 696,183.5C 698.234,185.7 700.734,187.533 703.5,189C 728.443,196.486 753.443,203.82 778.5,211C 796.048,217.015 810.215,227.515 821,242.5C 832.041,265.323 830.708,287.323 817,308.5C 801.857,324.984 783.024,333.151 760.5,333C 741.807,333.854 723.14,333.521 704.5,332C 666.006,324.683 647.339,301.517 648.5,262.5C 662.171,262.333 675.837,262.5 689.5,263C 688.732,280.174 696.732,290.174 713.5,293C 730.167,293.667 746.833,293.667 763.5,293C 780.291,291.569 787.124,282.736 784,266.5C 778.661,257.405 770.828,251.571 760.5,249C 736.323,242.956 712.323,236.289 688.5,229C 657.187,215.875 645.353,192.708 653,159.5C 659.625,140.912 672.458,128.746 691.5,123C 696.596,121.64 701.596,120.474 706.5,119.5 Z"/></g>
<g><path style="opacity:0.966" fill="#fefefe" d="M 854.5,119.5 C 877.897,118.85 901.063,119.516 924,121.5C 924.168,191.737 924.668,261.904 925.5,332C 910.99,333.482 896.324,333.982 881.5,333.5C 881.667,276.832 881.5,220.166 881,163.5C 872.578,162.682 864.078,162.182 855.5,162C 855,161.5 854.5,161 854,160.5C 853.186,146.758 853.353,133.092 854.5,119.5 Z"/></g>
<g><path style="opacity:0.975" fill="#fefefe" d="M 980.5,119.5 C 993.837,119.333 1007.17,119.5 1020.5,120C 1021.32,127.754 1021.82,135.588 1022,143.5C 1033.25,135.246 1044.75,127.412 1056.5,120C 1072.21,119.099 1087.87,119.432 1103.5,121C 1131.13,127.96 1149.96,144.793 1160,171.5C 1161.48,176.406 1162.48,181.406 1163,186.5C 1163.83,235.17 1163.67,283.837 1162.5,332.5C 1149.21,333.648 1135.88,333.815 1122.5,333C 1122,332.5 1121.5,332 1121,331.5C 1120.67,283.5 1120.33,235.5 1120,187.5C 1113.86,169.419 1101.19,161.086 1082,162.5C 1077.5,162.667 1073,162.833 1068.5,163C 1053,172.584 1037.66,182.417 1022.5,192.5C 1021.83,239.167 1021.17,285.833 1020.5,332.5C 1007.17,333.833 993.833,333.833 980.5,332.5C 979.17,261.432 979.17,190.432 980.5,119.5 Z"/></g>
<g><path style="opacity:0.977" fill="#fefefe" d="M 1423.5,119.5 C 1436.84,119.333 1450.17,119.5 1463.5,120C 1464.16,130.106 1464.82,140.273 1465.5,150.5C 1480.7,140.073 1496.03,129.906 1511.5,120C 1547.24,116.781 1572.74,131.281 1588,163.5C 1593.41,179.378 1595.58,195.712 1594.5,212.5C 1580.17,212.5 1565.83,212.5 1551.5,212.5C 1551.67,204.826 1551.5,197.159 1551,189.5C 1548.02,171.504 1537.52,162.671 1519.5,163C 1501.25,175.043 1483.08,187.209 1465,199.5C 1464.67,243.833 1464.33,288.167 1464,332.5C 1450.58,333.656 1437.08,333.822 1423.5,333C 1422.17,261.833 1422.17,190.667 1423.5,119.5 Z"/></g>
<g><path style="opacity:0.979" fill="#f9f9f9" d="M 1690.5,121.5 C 1690.5,192.167 1690.5,262.833 1690.5,333.5C 1675.68,333.982 1661.01,333.482 1646.5,332C 1647.45,276.045 1647.61,219.879 1647,163.5C 1638.58,162.682 1630.08,162.182 1621.5,162C 1621,161.5 1620.5,161 1620,160.5C 1619.18,146.925 1619.34,133.425 1620.5,120C 1643.17,119.333 1665.83,119.333 1688.5,120C 1689.04,120.717 1689.71,121.217 1690.5,121.5 Z"/></g>
<g><path style="opacity:0.992" fill="#fefefe" d="M 371.5,399.5 C 270.167,399.5 168.833,399.5 67.5,399.5C 53.156,395.322 43.9893,385.989 40,371.5C 35.0261,350.782 41.1927,334.615 58.5,323C 61.4055,321.714 64.4055,320.714 67.5,320C 170.526,319.985 273.526,319.318 376.5,318C 390.32,313.542 397.82,304.042 399,289.5C 396.255,267.818 404.422,251.985 423.5,242C 447.407,234.516 465.241,241.683 477,263.5C 484.484,287.407 477.317,305.241 455.5,317C 453.212,317.822 450.878,318.489 448.5,319C 410.515,315.989 394.015,333.489 399,371.5C 394.984,386.015 385.817,395.348 371.5,399.5 Z"/></g>
</svg>
