<?xml version="1.0" encoding="UTF-8"?>
<!DOCTYPE svg PUBLIC "-//W3C//DTD SVG 1.1//EN" "http://www.w3.org/Graphics/SVG/1.1/DTD/svg11.dtd">
<svg xmlns="http://www.w3.org/2000/svg" version="1.1" width="262px" height="64px" style="shape-rendering:geometricPrecision; text-rendering:geometricPrecision; image-rendering:optimizeQuality; fill-rule:evenodd; clip-rule:evenodd" xmlns:xlink="http://www.w3.org/1999/xlink">
<g><path style="opacity:0.991" fill="#f6f7f7" d="M 167.5,58.5 C 166.761,58.631 166.094,58.4643 165.5,58C 166.473,43.8696 166.806,29.8696 166.5,16C 164.905,16.6171 163.572,16.2837 162.5,15C 166.19,14.5756 166.357,13.7423 163,12.5C 161.156,13.7107 160.322,15.044 160.5,16.5C 159.808,15.9747 159.308,15.3081 159,14.5C 158.333,21.1667 158.333,27.8333 159,34.5C 161.878,35.7909 161.712,37.2909 158.5,39C 156.799,39.3446 155.466,38.6779 154.5,37C 147.833,36.3333 141.167,36.3333 134.5,37C 134.833,37.3333 135.167,37.6667 135.5,38C 133.833,39 132.167,40 130.5,41C 131.5,41.5 132.5,42 133.5,42.5C 133.338,40.3689 134.671,39.3689 137.5,39.5C 137.5,41.1667 137.5,42.8333 137.5,44.5C 143.026,44.1786 148.36,44.5119 153.5,45.5C 147.824,45.3339 142.157,45.5006 136.5,46C 136,46.5 135.5,47 135,47.5C 134.768,51.5548 134.268,55.5548 133.5,59.5C 131.211,61.5923 128.711,61.9256 126,60.5C 124.863,52.4315 124.363,44.2649 124.5,36C 124.515,28.0909 124.849,20.2575 125.5,12.5C 127.189,11.0693 129.189,10.2359 131.5,10C 133.394,8.92071 133.727,7.58738 132.5,6C 136.016,1.99273 140.516,0.492735 146,1.5C 149.553,1.53683 153.053,1.87017 156.5,2.5C 157.934,4.21986 158.767,6.21986 159,8.5C 161.445,9.90644 163.945,11.2398 166.5,12.5C 167.484,27.7851 167.817,43.1185 167.5,58.5 Z M 156.5,34.5 C 149.432,35.8268 142.265,35.8268 135,34.5C 134.333,27.5 134.333,20.5 135,13.5C 135.5,13 136,12.5 136.5,12C 143.414,11.1888 150.248,11.3555 157,12.5C 157.822,20.0118 157.655,27.3451 156.5,34.5 Z"/></g>
<g><path style="opacity:0.958" fill="#fafbfb" d="M 11.5,1.5 C 18.175,1.33375 24.8417,1.50042 31.5,2C 33.317,3.79976 34.4837,5.96642 35,8.5C 36.9321,10.0383 39.0988,11.205 41.5,12C 42.1258,12.7504 42.6258,13.5838 43,14.5C 43.2594,25.8563 43.426,37.1896 43.5,48.5C 42.9598,49.7481 42.2931,50.9148 41.5,52C 39.1116,52.3034 36.9449,53.1367 35,54.5C 34.2966,59.2035 31.6299,61.8702 27,62.5C 21.917,61.6929 16.7503,61.1929 11.5,61C 10.0194,58.2377 8.35269,55.571 6.5,53C 4.78178,52.654 3.11511,52.154 1.5,51.5C 0.33399,38.5128 0.167323,25.5128 1,12.5C 3.21294,11.1981 5.54627,10.1981 8,9.5C 8.8717,6.63876 10.0384,3.97209 11.5,1.5 Z M 30.5,51.5 C 24.5,52.8333 18.5,52.8333 12.5,51.5C 11.2502,51.4226 10.4169,50.756 10,49.5C 9.33333,37.8333 9.33333,26.1667 10,14.5C 10.3742,13.5838 10.8742,12.7504 11.5,12C 18.1667,11.3333 24.8333,11.3333 31.5,12C 32.1667,12.6667 32.8333,13.3333 33.5,14C 33.6222,25.6285 33.4555,37.4618 33,49.5C 32.5831,50.756 31.7498,51.4226 30.5,51.5 Z"/></g>
<g><path style="opacity:0.004" fill="#000000" d="M 123.5,8.5 C 124.833,9.16667 124.833,9.16667 123.5,8.5 Z"/></g>
<g><path style="opacity:0.02" fill="#fefffe" d="M 125.5,12.5 C 124.833,11.1667 124.833,11.1667 125.5,12.5 Z"/></g>
<g><path style="opacity:0.008" fill="#fefffe" d="M 169.5,13.5 C 170.833,14.1667 170.833,14.1667 169.5,13.5 Z"/></g>
<g><path style="opacity:0.958" fill="#f9f9f9" d="M 212.5,19.5 C 210.402,20.9626 208.402,20.7959 206.5,19C 205.167,16.6667 203.833,14.3333 202.5,12C 195.331,11.042 188.331,11.3753 181.5,13C 182.654,13.9138 182.487,14.7471 181,15.5C 180.843,17.9951 180.676,20.3284 180.5,22.5C 181,23.5 181.5,24.5 182,25.5C 189.192,26.0544 196.358,26.8877 203.5,28C 204.863,29.9449 205.697,32.1116 206,34.5C 214.077,36.3302 216.744,41.3302 214,49.5C 213.626,50.4162 213.126,51.2496 212.5,52C 210.112,52.3034 207.945,53.1367 206,54.5C 205.697,56.8884 204.863,59.0551 203.5,61C 196.5,61.6667 189.5,61.6667 182.5,61C 180.98,59.1153 179.98,56.9486 179.5,54.5C 176.822,53.4452 174.322,52.1118 172,50.5C 170.833,45 173,42.8333 178.5,44C 180.038,45.9321 181.205,48.0988 182,50.5C 182.75,51.1258 183.584,51.6258 184.5,52C 190.167,52.6667 195.833,52.6667 201.5,52C 202.667,51.5 203.5,50.6667 204,49.5C 204.81,45.6425 204.643,41.9758 203.5,38.5C 203.389,37.8826 203.056,37.3826 202.5,37C 195.394,36.9263 188.394,36.2597 181.5,35C 180.598,32.7984 179.598,30.6317 178.5,28.5C 176.051,28.02 173.885,27.02 172,25.5C 171.333,21.1667 171.333,16.8333 172,12.5C 173.945,11.1367 176.112,10.3034 178.5,10C 179.958,7.94318 180.792,5.77652 181,3.5C 181.75,2.87424 182.584,2.37424 183.5,2C 189.833,1.33333 196.167,1.33333 202.5,2C 204.768,3.55773 205.934,5.7244 206,8.5C 208.333,9.83333 210.667,11.1667 213,12.5C 214.804,14.9236 214.638,17.2569 212.5,19.5 Z"/></g>
<g><path style="opacity:0.997" fill="#fcfcfc" d="M 167.5,58.5 C 163.949,62.6943 160.782,62.3609 158,57.5C 157.825,53.789 157.325,50.1224 156.5,46.5C 155.583,45.8728 154.583,45.5394 153.5,45.5C 148.36,44.5119 143.026,44.1786 137.5,44.5C 137.5,42.8333 137.5,41.1667 137.5,39.5C 134.671,39.3689 133.338,40.3689 133.5,42.5C 132.5,42 131.5,41.5 130.5,41C 132.167,40 133.833,39 135.5,38C 135.167,37.6667 134.833,37.3333 134.5,37C 141.167,36.3333 147.833,36.3333 154.5,37C 155.466,38.6779 156.799,39.3446 158.5,39C 161.712,37.2909 161.878,35.7909 159,34.5C 158.333,27.8333 158.333,21.1667 159,14.5C 159.308,15.3081 159.808,15.9747 160.5,16.5C 160.322,15.044 161.156,13.7107 163,12.5C 166.357,13.7423 166.19,14.5756 162.5,15C 163.572,16.2837 164.905,16.6171 166.5,16C 166.806,29.8696 166.473,43.8696 165.5,58C 166.094,58.4643 166.761,58.631 167.5,58.5 Z"/></g>
<g><path style="opacity:0.004" fill="#f2f2f2" d="M 168.5,16.5 C 168.897,15.475 169.563,15.3083 170.5,16C 169.906,16.4643 169.239,16.631 168.5,16.5 Z"/></g>
<g><path style="opacity:0.946" fill="#f9faf9" d="M 88.5,39.5 C 87.6717,45.9874 87.1717,52.654 87,59.5C 83.195,62.5388 80.195,61.8721 78,57.5C 78.0918,43.2225 77.9251,29.2225 77.5,15.5C 78.7307,11.6045 81.3973,9.60449 85.5,9.5C 86.1823,6.63448 87.5156,4.13448 89.5,2C 96.1667,1.33333 102.833,1.33333 109.5,2C 111.487,4.1398 112.82,6.6398 113.5,9.5C 115.949,9.98002 118.115,10.98 120,12.5C 121.125,17.0009 121.125,21.3343 120,25.5C 118.509,27.0037 116.676,27.8371 114.5,28C 113.019,30.7623 111.353,33.429 109.5,36C 102.833,36.3333 96.1667,36.6667 89.5,37C 88.7476,37.6708 88.4142,38.5041 88.5,39.5 Z M 89.5,11.5 C 96.175,11.3337 102.842,11.5004 109.5,12C 111.928,16.2962 112.094,20.7962 110,25.5C 103.248,26.6445 96.4143,26.8112 89.5,26C 86.8546,21.1026 86.8546,16.2692 89.5,11.5 Z"/></g>
<g><path style="opacity:0.051" fill="#eaebea" d="M 47.5,19.5 C 46.8333,18.1667 46.8333,18.1667 47.5,19.5 Z"/></g>
<g><path style="opacity:0.888" fill="#f9f9f9" d="M 67.5,28.5 C 65.2812,30.0654 64.9479,32.0654 66.5,34.5C 68.5,35.3333 70.5,36.1667 72.5,37C 75.2652,39.9663 74.9318,42.633 71.5,45C 66.6091,45.7841 64.1091,43.6174 64,38.5C 59.2555,35.2044 56.5889,36.5377 56,42.5C 53.4685,46.0139 50.6352,46.3472 47.5,43.5C 46.9717,42.2794 46.305,41.1127 45.5,40C 47.3482,37.8208 49.5148,35.9874 52,34.5C 54.3949,35.7982 55.5616,34.9649 55.5,32C 54.7318,28.3553 52.3985,26.522 48.5,26.5C 47.7124,25.2299 46.7124,24.2299 45.5,23.5C 46.6005,22.3951 47.2671,21.0618 47.5,19.5C 52.8748,17.03 56.0414,18.6966 57,24.5C 58.8647,26.6732 61.0314,27.0066 63.5,25.5C 64.7598,18.1117 68.2598,16.445 74,20.5C 74.2495,25.0873 72.0828,27.754 67.5,28.5 Z"/></g>
<g><path style="opacity:0.031" fill="#dedfde" d="M 212.5,19.5 C 213.833,20.1667 213.833,20.1667 212.5,19.5 Z"/></g>
<g><path style="opacity:0.971" fill="#fafafa" d="M 19.5,22.5 C 22.368,22.085 24.5347,23.085 26,25.5C 26.6667,29.8333 26.6667,34.1667 26,38.5C 23,41.1667 20,41.1667 17,38.5C 16.3333,34.1667 16.3333,29.8333 17,25.5C 17.6979,24.3094 18.5313,23.3094 19.5,22.5 Z"/></g>
<g><path style="opacity:0.012" fill="#fefffe" d="M 45.5,23.5 C 45.631,24.2389 45.4643,24.9056 45,25.5C 44.3083,24.5632 44.475,23.8966 45.5,23.5 Z"/></g>
<g><path style="opacity:0.008" fill="#fefffe" d="M 170.5,26.5 C 169.833,25.1667 169.833,25.1667 170.5,26.5 Z"/></g>
<g><path style="opacity:0.02" fill="#cbcccb" d="M 250.5,26.5 C 249.833,25.1667 249.833,25.1667 250.5,26.5 Z"/></g>
<g><path style="opacity:0.031" fill="#dedfde" d="M 170.5,26.5 C 171.833,27.1667 171.833,27.1667 170.5,26.5 Z"/></g>
<g><path style="opacity:0.027" fill="#dadbda" d="M 250.5,26.5 C 251.833,27.1667 251.833,27.1667 250.5,26.5 Z"/></g>
<g><path style="opacity:0.993" fill="#f8f9f9" d="M 250.5,27.5 C 251.176,29.8591 252.009,32.1924 253,34.5C 255.343,35.1268 257.51,36.1268 259.5,37.5C 260.661,41.7953 260.828,46.1287 260,50.5C 258.509,52.0037 256.676,52.8371 254.5,53C 253.019,55.7623 251.353,58.429 249.5,61C 242.833,61.6667 236.167,61.6667 229.5,61C 227.232,59.4423 226.066,57.2756 226,54.5C 223.538,53.3502 221.204,52.0169 219,50.5C 217.156,46.6269 218.489,44.2936 223,43.5C 226.772,44.1813 228.439,46.5146 228,50.5C 228.75,51.1258 229.584,51.6258 230.5,52C 236.167,52.6667 241.833,52.6667 247.5,52C 249.061,51.6824 250.228,50.8491 251,49.5C 251.978,45.0998 251.478,40.9331 249.5,37C 242.833,36.6667 236.167,36.3333 229.5,36C 227.232,34.4423 226.066,32.2756 226,29.5C 223.667,28.1667 221.333,26.8333 219,25.5C 217.077,21.1384 217.077,16.8051 219,12.5C 220.491,10.9963 222.324,10.1629 224.5,10C 225.981,7.23767 227.647,4.571 229.5,2C 235.833,1.33333 242.167,1.33333 248.5,2C 249.416,2.37424 250.25,2.87424 251,3.5C 251.543,5.63138 252.376,7.63138 253.5,9.5C 259.87,10.0209 261.87,13.1876 259.5,19C 257.956,20.1871 256.289,20.5205 254.5,20C 252.284,17.6952 250.617,15.0285 249.5,12C 242.808,11.1691 236.142,11.3358 229.5,12.5C 228.975,13.1924 228.308,13.6924 227.5,14C 228.839,15.9742 228.839,18.3075 227.5,21C 227.354,23.0342 228.02,24.7009 229.5,26C 236.548,26.2388 243.548,26.7388 250.5,27.5 Z"/></g>
<g><path style="opacity:0.004" fill="#000000" d="M 238.5,12.5 C 239.833,13.1667 239.833,13.1667 238.5,12.5 Z"/></g>
<g><path style="opacity:0.004" fill="#fefffe" d="M 67.5,28.5 C 68.8333,29.1667 68.8333,29.1667 67.5,28.5 Z"/></g>
<g><path style="opacity:0.09" fill="#dddee8" d="M 203.5,38.5 C 202.833,39.1667 202.833,39.1667 203.5,38.5 Z"/></g>
<g><path style="opacity:0.035" fill="#e2e3e2" d="M 88.5,39.5 C 89.8333,40.1667 89.8333,40.1667 88.5,39.5 Z"/></g>
<g><path style="opacity:0.02" fill="#cbfffe" d="M 44.5,42.5 C 45.8333,43.1667 45.8333,43.1667 44.5,42.5 Z"/></g>
<g><path style="opacity:0.035" fill="#e2e3e2" d="M 47.5,43.5 C 46.8333,44.1667 46.8333,44.1667 47.5,43.5 Z"/></g>
<g><path style="opacity:0.02" fill="#cbcccb" d="M 44.5,44.5 C 45.8333,45.1667 45.8333,45.1667 44.5,44.5 Z"/></g>
<g><path style="opacity:0.004" fill="#fefffe" d="M 169.5,44.5 C 170.833,45.1667 170.833,45.1667 169.5,44.5 Z"/></g>
<g><path style="opacity:0.004" fill="#000000" d="M 136.5,47.5 C 137.833,48.1667 137.833,48.1667 136.5,47.5 Z"/></g>
<g><path style="opacity:0.031" fill="#dedfde" d="M 169.5,47.5 C 170.833,48.1667 170.833,48.1667 169.5,47.5 Z"/></g>
<g><path style="opacity:0.004" fill="#000000" d="M 62.5,51.5 C 63.8333,52.1667 63.8333,52.1667 62.5,51.5 Z"/></g>
<g><path style="opacity:0.016" fill="#fefffe" d="M 36.5,54.5 C 37.8333,55.1667 37.8333,55.1667 36.5,54.5 Z"/></g>
</svg>
