<?xml version="1.0" encoding="UTF-8" standalone="no"?>
<!-- Created with Inkscape (http://www.inkscape.org/) -->

<svg
   width="35.846001mm"
   height="5.4549999mm"
   viewBox="0 0 35.845999 5.4550003"
   version="1.1"
   id="svg1"
   xmlns="http://www.w3.org/2000/svg"
   xmlns:svg="http://www.w3.org/2000/svg">
  <defs
     id="defs1" />
  <g
     id="layer1">
    <path
       id="text1"
       style="font-size:5.96838px;font-family:'Square Space';-inkscape-font-specification:'Square Space';fill:#ffffff;stroke-width:0.497364"
       d="m 0,0 v 0.459403 4.668966 0.326595 h 0.367936 3.995622 5.17e-4 V 4.995561 H 4.363558 V 0.327629 l 5.17e-4,-5.17e-4 V 0 H 4.363558 Z M 0.367936,0.459403 H 3.734139 L 0.367936,4.667932 V 4.185274 Z m 11.477853,0.222726 v 0.33693 h 3.734139 l -3.628202,3.325895 -0.105937,0.09715 v 0.239778 h 4.363557 V 4.344951 H 12.475724 L 16.209346,0.921905 V 0.682126 Z m 6.545853,0 V 2.510441 2.853573 4.681885 H 22.7552 V 4.344954 H 22.387264 21.738725 18.759061 V 2.853573 H 22.24412 V 2.510441 H 18.759061 V 1.019059 h 2.979664 0.648539 0.367936 v -0.33693 z m 6.545337,0 v 3.999756 h 0.36742 V 4.344954 3.750675 2.853573 h 1.477429 l 1.995227,1.828312 h 0.523482 L 27.305827,2.853573 H 28.9326 29.300537 V 2.510441 0.682129 Z m 6.545338,0 v 3.999756 h 0.367935 3.627686 0.367936 V 0.682129 Z M 3.995622,0.788066 V 4.185274 4.995561 H 0.629419 Z M 25.304399,1.019059 H 28.9326 v 1.491382 h -3.628201 z m 6.545853,0 h 3.627686 V 3.750675 4.344954 H 31.850252 V 3.750675 Z M 6.802686,1.825212 6.547404,2.059306 7.850167,3.253548 6.547404,4.447791 6.802686,4.681885 8.105448,3.487642 9.408728,4.681885 9.66401,4.447791 8.361247,3.253548 9.66401,2.059306 9.408728,1.825212 8.105448,3.019454 Z" />
  </g>
</svg>
