<svg width="850" height="219" viewBox="0 0 850 219" fill="none" xmlns="http://www.w3.org/2000/svg">
<rect x="78.0889" y="218.547" width="58.5318" height="27.3148" transform="rotate(-180 78.0889 218.547)" fill="white"/>
<rect x="78.0889" y="27.3164" width="58.5318" height="27.3148" transform="rotate(-180 78.0889 27.3164)" fill="white"/>
<rect x="58.5557" y="171.707" width="19.5106" height="124.868" transform="rotate(-180 58.5557 171.707)" fill="white"/>
<rect x="97.5986" y="191.23" width="19.5106" height="163.889" transform="rotate(-180 97.5986 191.23)" fill="white"/>
<rect x="19.5107" y="191.23" width="19.5106" height="163.889" transform="rotate(-180 19.5107 191.23)" fill="white"/>
<path d="M745.477 46.9688H785.446C794.744 46.9688 803.304 48.6309 811.128 51.9553C818.952 55.161 825.698 59.554 831.368 65.1342C837.037 70.7144 841.403 77.3039 844.464 84.9025C847.639 92.5011 849.226 100.634 849.226 109.301C849.226 117.968 847.639 126.101 844.464 133.7C841.403 141.298 837.037 147.888 831.368 153.468C825.698 159.048 818.952 163.501 811.128 166.825C803.304 170.031 794.744 171.634 785.446 171.634H745.477V46.9688ZM785.446 152.043C792.022 152.043 797.975 150.975 803.304 148.838C808.634 146.701 813.169 143.792 816.911 140.111C820.766 136.312 823.714 131.8 825.755 126.576C827.796 121.352 828.817 115.594 828.817 109.301C828.817 103.127 827.796 97.4283 825.755 92.2043C823.714 86.8615 820.766 82.3498 816.911 78.6692C813.169 74.8699 808.634 71.9017 803.304 69.7646C797.975 67.6275 792.022 66.5589 785.446 66.5589H765.036V152.043H785.446Z" fill="white"/>
<path d="M648.165 46.9727H734.056V66.5628H667.724V98.6195H721.3V118.21H667.724V152.047H734.056V171.637H648.165V46.9727Z" fill="white"/>
<path d="M537.249 46.9727H565.313L617.187 145.814H618.888L617.187 130.676V46.9727H636.747V171.637H608.683L556.808 72.7961H555.108L556.808 87.9339V171.637H537.249V46.9727Z" fill="white"/>
<path d="M460.585 173.692C451.664 173.692 443.307 172.126 435.514 168.993C427.835 165.745 421.115 161.279 415.356 155.594C409.709 149.794 405.248 143.007 401.973 135.235C398.698 127.346 397.061 118.704 397.061 109.307C397.061 99.9101 398.698 91.3255 401.973 83.5529C405.248 75.6643 409.709 68.8777 415.356 63.1933C421.115 57.3928 427.835 52.9265 435.514 49.7943C443.307 46.546 451.664 44.9219 460.585 44.9219C466.684 44.9219 472.217 45.5599 477.187 46.836C482.156 48.1121 486.616 49.7943 490.569 51.8824C494.522 53.9706 497.966 56.3488 500.902 59.017C503.952 61.6852 506.549 64.4114 508.695 67.1956C513.777 73.6921 517.504 81.0587 519.875 89.2953H500.394C498.362 84.655 495.538 80.4786 491.924 76.7664C488.875 73.6341 484.81 70.7339 479.728 68.0657C474.646 65.3975 468.265 64.0634 460.585 64.0634C454.261 64.0634 448.445 65.1654 443.137 67.3696C437.829 69.5738 433.256 72.648 429.416 76.5923C425.576 80.5366 422.583 85.293 420.438 90.8614C418.405 96.4299 417.388 102.578 417.388 109.307C417.388 116.035 418.405 122.184 420.438 127.752C422.583 133.321 425.576 138.077 429.416 142.021C433.256 145.966 437.829 149.04 443.137 151.244C448.445 153.448 454.261 154.55 460.585 154.55C464.651 154.55 468.378 154.144 471.766 153.332C475.154 152.52 478.146 151.418 480.744 150.026C483.454 148.634 485.826 147.068 487.859 145.328C489.892 143.472 491.698 141.615 493.28 139.759C496.893 135.467 499.547 130.537 501.241 124.968H480.066V105.827H525.831V124.968H520.722C518.125 134.017 514.229 142.137 509.034 149.33C506.775 152.346 504.121 155.362 501.072 158.379C498.136 161.279 494.635 163.889 490.569 166.209C486.616 168.413 482.156 170.212 477.187 171.604C472.217 172.996 466.684 173.692 460.585 173.692Z" fill="white"/>
<path d="M365.558 46.9688H385.117V171.634H365.558V46.9688Z" fill="white"/>
<path d="M274.2 46.9688H293.76V152.043H354.139V171.634H274.2V46.9688Z" fill="white"/>
<path d="M182.841 46.9688H231.315L262.78 171.634H242.37L234.206 139.577H179.44L171.786 171.634H152.227L182.841 46.9688ZM229.444 119.987L216.007 66.5589H197.298L184.542 119.987H229.444Z" fill="white"/>
</svg>
