<?xml version="1.0" encoding="UTF-8"?>
<svg version="1.1" xmlns="http://www.w3.org/2000/svg" width="198" height="100">
<path d="M0 0 C0.920728 0.00007553 1.84145599 0.00015106 2.79008484 0.00022888 C4.27614983 0.00797081 4.27614983 0.00797081 5.79223633 0.01586914 C6.80900955 0.01728409 7.82578278 0.01869904 8.87336731 0.02015686 C12.12369721 0.02575832 15.37395846 0.03831107 18.62426758 0.05102539 C20.82674054 0.0560402 23.02921459 0.06060314 25.23168945 0.06469727 C30.63340562 0.07572822 36.0350817 0.09246777 41.43676758 0.11352539 C45.40236601 8.54001386 48.87983112 17.1219028 52.24926758 25.80102539 C52.75615004 27.09996242 53.26330996 28.39879122 53.77075195 29.69750977 C54.99547516 32.83513398 56.21741991 35.97380913 57.43676758 39.11352539 C60.34043639 36.20985658 61.41924088 32.58106384 62.91333008 28.82446289 C63.24344086 28.00603912 63.57355164 27.18761536 63.91366577 26.34439087 C64.96783674 23.72767147 66.01487213 21.10816294 67.06176758 18.48852539 C67.77484144 16.71489974 68.48837739 14.94145979 69.20239258 13.16821289 C70.95343495 8.8191123 72.69480422 4.4663146 74.43676758 0.11352539 C82.02676758 0.11352539 89.61676758 0.11352539 97.43676758 0.11352539 C97.10676758 1.43352539 96.77676758 2.75352539 96.43676758 4.11352539 C97.55116211 3.46158203 98.66555664 2.80963867 99.8137207 2.13793945 C104.73479619 -0.31125816 108.98944756 -0.40453801 114.40551758 -0.27709961 C115.78688904 -0.26860992 115.78688904 -0.26860992 117.19616699 -0.25994873 C120.11025065 -0.23772697 123.02306155 -0.18755844 125.93676758 -0.13647461 C127.92372887 -0.11639121 129.91070961 -0.09814367 131.89770508 -0.08178711 C136.74493275 -0.04132611 141.58944166 0.03698867 146.43676758 0.11352539 C146.43676758 6.71352539 146.43676758 13.31352539 146.43676758 20.11352539 C134.55676758 20.44352539 122.67676758 20.77352539 110.43676758 21.11352539 C110.43676758 22.10352539 110.43676758 23.09352539 110.43676758 24.11352539 C111.50991211 24.12754395 111.50991211 24.12754395 112.60473633 24.1418457 C115.8827495 24.19591384 119.15939119 24.2794901 122.43676758 24.36352539 C124.12479492 24.38479492 124.12479492 24.38479492 125.84692383 24.40649414 C133.69373273 24.635933 139.43573827 25.66089972 145.46020508 30.85961914 C146.12922852 31.69686523 146.12922852 31.69686523 146.81176758 32.55102539 C147.50399414 33.3844043 147.50399414 33.3844043 148.21020508 34.23461914 C152.27340012 40.45881282 152.12610656 46.90600647 151.43676758 54.11352539 C149.76251616 60.30925819 145.74783232 64.64642699 140.43676758 68.11352539 C135.51321755 70.77160837 130.54536056 70.36742989 125.10473633 70.30883789 C123.6171154 70.30459305 123.6171154 70.30459305 122.09944153 70.30026245 C118.94092598 70.28909343 115.782697 70.26399466 112.62426758 70.23852539 C110.47908939 70.22849136 108.33390674 70.21936625 106.1887207 70.21118164 C100.93787121 70.19086888 95.68763909 70.15171355 90.43676758 70.11352539 C90.43676758 63.51352539 90.43676758 56.91352539 90.43676758 50.11352539 C102.97676758 49.78352539 115.51676758 49.45352539 128.43676758 49.11352539 C128.43676758 48.12352539 128.43676758 47.13352539 128.43676758 46.11352539 C127.42477295 46.11521729 127.42477295 46.11521729 126.39233398 46.11694336 C123.28117748 46.104701 120.17238781 46.04687231 117.06176758 45.98852539 C116.00086914 45.99110352 114.9399707 45.99368164 113.84692383 45.99633789 C106.0704671 45.8055046 100.5071421 44.0981892 94.43676758 39.11352539 C90.87387524 34.77064576 89.18072341 30.42499252 87.43676758 25.11352539 C85.92679566 28.71219704 84.41713364 32.31099859 82.90759277 35.90985107 C82.05525525 37.94154868 81.20256362 39.97309742 80.34985352 42.00463867 C77.17221264 49.57745452 74.00147659 57.15308616 70.8420105 64.73350525 C69.19826781 68.67695595 67.55273962 72.61966065 65.90716553 76.56234741 C65.09219344 78.5164259 64.27810934 80.47087497 63.46490479 82.4256897 C62.31711533 85.1845436 61.16631882 87.94212525 60.01489258 90.69946289 C59.66754059 91.53659317 59.3201886 92.37372345 58.96231079 93.23622131 C56.55057902 98.99971395 56.55057902 98.99971395 55.43676758 100.11352539 C53.729044 100.20066371 52.01778109 100.22052546 50.30786133 100.21118164 C48.75615234 100.20634766 48.75615234 100.20634766 47.1730957 100.20141602 C46.08448242 100.19303711 44.99586914 100.1846582 43.87426758 100.17602539 C42.23554687 100.16925781 42.23554687 100.16925781 40.5637207 100.16235352 C37.85468263 100.15052366 35.14575159 100.13404082 32.43676758 100.11352539 C33.29988417 97.94527873 34.16383861 95.77737142 35.02880859 93.60986328 C35.76122055 91.77369165 36.49216969 89.93693588 37.22167969 88.09960938 C38.80009527 84.13795123 40.37894019 80.18428928 42.11645508 76.28930664 C42.5727832 75.26192383 43.02911133 74.23454102 43.49926758 73.17602539 C44.10448242 71.86311523 44.10448242 71.86311523 44.72192383 70.52368164 C46.41123875 64.82801329 42.87294347 59.13916713 40.62036133 53.98071289 C39.84887695 52.18774414 39.07739258 50.39477539 38.3059082 48.60180664 C37.08702929 45.78559763 35.86631387 42.97019159 34.64501953 40.1550293 C33.46570367 37.43214478 32.2928272 34.70655237 31.12036133 31.98071289 C30.56728554 30.71503983 30.56728554 30.71503983 30.0030365 29.42379761 C29.66591141 28.63933258 29.32878632 27.85486755 28.98144531 27.04663086 C28.68245834 26.35777802 28.38347137 25.66892517 28.07542419 24.959198 C27.43676758 23.11352539 27.43676758 23.11352539 27.43676758 20.11352539 C18.85676758 20.44352539 10.27676758 20.77352539 1.43676758 21.11352539 C1.43676758 37.28352539 1.43676758 53.45352539 1.43676758 70.11352539 C-5.82323242 70.11352539 -13.08323242 70.11352539 -20.56323242 70.11352539 C-20.6873934 62.74867814 -20.77783935 55.38444836 -20.83789062 48.01879883 C-20.86294035 45.51641213 -20.89698984 43.01409791 -20.94042969 40.51196289 C-21.00149903 36.90240533 -21.02953916 33.2938202 -21.05151367 29.68383789 C-21.0773201 28.57614044 -21.10312653 27.46844299 -21.12971497 26.32717896 C-21.13234308 18.948211 -19.87570382 13.21596932 -15.56323242 7.11352539 C-10.78889475 2.64521683 -6.66718965 -0.01826627 0 0 Z " fill="#FFFFFF" transform="translate(46.563232421875,-0.113525390625)"/>
<path d="M0 0 C7.26 0 14.52 0 22 0 C22 23.1 22 46.2 22 70 C14.74 70 7.48 70 0 70 C0 46.9 0 23.8 0 0 Z " fill="#FFFFFF" transform="translate(0,0)"/>
</svg>
