<svg width="383" height="144" viewBox="0 0 383 144" fill="none" xmlns="http://www.w3.org/2000/svg">
<g clip-path="url(#clip0_69_18)">
<path d="M328.83 30.46H336.761V50.6711C336.761 51.5536 337.045 52.0832 337.614 52.2597C338.182 52.3774 338.865 52.0243 339.661 51.2006C340.854 49.9062 342.162 48.9059 343.583 48.1998C345.062 47.4349 346.71 47.0525 348.53 47.0525H352.282C354.727 47.0525 356.972 47.788 359.019 49.2589C361.066 50.7299 362.686 52.7598 363.88 55.3487C365.074 57.8788 365.671 60.7325 365.671 63.9098V92.2405H357.74V64.9689C357.74 62.9683 357.427 61.1738 356.802 59.5851C356.176 57.9376 355.267 56.6726 354.073 55.79C352.879 54.8486 351.514 54.3779 349.979 54.3779H346.739C344.806 54.3779 343.072 55.0251 341.537 56.3196C340.058 57.614 338.893 59.3498 338.04 61.5268C337.187 63.645 336.761 65.9397 336.761 68.4109V92.2405H328.83V30.46Z" fill="white"/>
<path d="M304.581 47.0527C308.106 47.0527 311.233 48.053 313.962 50.0535C316.747 52.054 318.908 54.8194 320.443 58.3498C322.035 61.8213 322.831 65.7046 322.831 69.9998C322.831 74.2362 322.063 78.1196 320.528 81.65C318.993 85.1214 316.833 87.8869 314.047 89.9462C311.318 91.9467 308.191 92.947 304.666 92.947H302.364C300.885 92.947 299.379 92.6234 297.844 91.9761C296.309 91.2701 294.916 90.3581 293.665 89.2402C292.869 88.5929 292.187 88.387 291.618 88.6223C291.107 88.8577 290.851 89.4167 290.851 90.2992V110.246H282.92V47.7588H290.851V49.7887C290.851 50.6713 291.135 51.2303 291.704 51.4656C292.272 51.701 292.926 51.4951 293.665 50.8478C294.916 49.6711 296.28 48.7591 297.758 48.1118C299.294 47.4058 300.829 47.0527 302.364 47.0527H304.581ZM300.914 54.2016C298.924 54.2016 297.105 54.8783 295.456 56.2316C293.864 57.526 292.585 59.4089 291.618 61.8801C290.652 64.2925 290.169 66.9991 290.169 69.9998C290.169 73.0006 290.652 75.7366 291.618 78.2079C292.585 80.6203 293.864 82.5031 295.456 83.8564C297.105 85.1509 298.924 85.7981 300.914 85.7981H303.984C305.86 85.7981 307.594 85.1509 309.186 83.8564C310.835 82.5031 312.142 80.6203 313.109 78.2079C314.132 75.7366 314.644 73.0006 314.644 69.9998C314.644 66.9991 314.132 64.2925 313.109 61.8801C312.142 59.4089 310.835 57.526 309.186 56.2316C307.594 54.8783 305.86 54.2016 303.984 54.2016H300.914Z" fill="white"/>
<path d="M272.708 54.7312C270.889 54.7312 269.325 55.3784 268.018 56.6729C266.767 57.9085 265.801 59.4971 265.118 61.4388C264.436 63.3216 264.095 65.175 264.095 66.999V92.2407H256.164V47.7588H264.095V50.1418C264.095 51.0832 264.351 51.6421 264.863 51.8187C265.374 51.9363 265.943 51.6421 266.568 50.9361C267.421 49.8181 268.359 49.0238 269.382 48.5531C270.463 48.0236 271.799 47.7588 273.39 47.7588H278.592V54.7312H272.708Z" fill="white"/>
<path d="M228.45 92.947C224.925 92.947 221.742 91.9762 218.899 90.0345C216.113 88.034 213.896 85.298 212.247 81.8265C210.655 78.2962 209.859 74.3539 209.859 69.9998C209.859 65.6458 210.655 61.733 212.247 58.2615C213.896 54.7312 216.113 51.9952 218.899 50.0535C221.742 48.053 224.925 47.0527 228.45 47.0527H231.606C235.074 47.0527 238.229 48.053 241.072 50.0535C243.914 51.9952 246.131 54.7312 247.723 58.2615C249.372 61.733 250.196 65.6458 250.196 69.9998C250.196 74.3539 249.372 78.2962 247.723 81.8265C246.131 85.298 243.914 88.034 241.072 90.0345C238.286 91.9762 235.13 92.947 231.606 92.947H228.45ZM231.606 85.7981C233.482 85.7981 235.216 85.1214 236.808 83.7682C238.456 82.4149 239.736 80.532 240.645 78.1196C241.555 75.7072 242.01 73.0006 242.01 69.9998C242.01 66.9991 241.555 64.3219 240.645 61.9684C239.736 59.556 238.456 57.6731 236.808 56.3198C235.216 54.9077 233.453 54.2016 231.52 54.2016H228.45C226.517 54.2016 224.755 54.8783 223.163 56.2316C221.571 57.5849 220.292 59.4677 219.325 61.8801C218.416 64.2336 217.961 66.9402 217.961 69.9998C217.961 73.0594 218.416 75.7954 219.325 78.2079C220.292 80.5614 221.571 82.4149 223.163 83.7682C224.755 85.1214 226.517 85.7981 228.45 85.7981H231.606Z" fill="white"/>
<path d="M145.787 30.46H156.788L173.332 75.6481C173.673 76.5895 174.185 77.0602 174.867 77.0602C175.55 77.0602 176.061 76.5895 176.402 75.6481L192.946 30.46H204.033V92.2405H195.846L195.931 51.7302C195.931 51.0829 195.732 50.6416 195.334 50.4063C194.993 50.1121 194.595 50.0532 194.14 50.2298C193.742 50.3474 193.458 50.6711 193.288 51.2006L178.108 92.2405H171.541L156.532 51.2006C156.305 50.6711 155.964 50.3474 155.509 50.2298C155.111 50.0532 154.741 50.1121 154.4 50.4063C154.059 50.7005 153.889 51.1418 153.889 51.7302L153.974 92.2405H145.787V30.46Z" fill="white"/>
<path fill-rule="evenodd" clip-rule="evenodd" d="M16 107.958H47.8133V60.0823C47.8133 58.5475 49.9421 58.301 50.2699 59.7979L57.8656 94.4909H76.9533V82.6975C76.9533 81.9865 77.5106 81.4104 78.197 81.4104H108.386V16.0225H76.5725V27.816C76.5725 28.5269 76.0158 29.1031 75.3288 29.1031H43.5496L46.1539 40.9985C46.3302 41.8036 45.7387 42.57 44.941 42.57H16V107.958Z" fill="white"/>
</g>
<path d="M146.063 116.523V114.805H158.062V116.523H153.031V130.805H151.094V116.523H146.063ZM162.976 123.586V130.805H161.133V114.805H162.976V120.68H163.133C163.414 120.06 163.836 119.568 164.398 119.203C164.966 118.833 165.721 118.648 166.664 118.648C167.482 118.648 168.198 118.812 168.812 119.141C169.427 119.464 169.904 119.961 170.242 120.633C170.586 121.299 170.758 122.148 170.758 123.18V130.805H168.914V123.305C168.914 122.352 168.667 121.615 168.172 121.094C167.682 120.568 167.003 120.305 166.133 120.305C165.529 120.305 164.987 120.432 164.508 120.687C164.034 120.943 163.659 121.315 163.383 121.805C163.112 122.294 162.976 122.888 162.976 123.586ZM179.492 131.055C178.336 131.055 177.338 130.799 176.5 130.289C175.667 129.773 175.023 129.055 174.57 128.133C174.122 127.206 173.898 126.128 173.898 124.898C173.898 123.669 174.122 122.586 174.57 121.648C175.023 120.706 175.653 119.971 176.461 119.445C177.273 118.914 178.221 118.648 179.305 118.648C179.93 118.648 180.547 118.753 181.156 118.961C181.765 119.169 182.32 119.508 182.82 119.977C183.32 120.44 183.719 121.055 184.015 121.82C184.312 122.586 184.461 123.529 184.461 124.648V125.43H175.211V123.836H182.586C182.586 123.159 182.45 122.555 182.18 122.023C181.914 121.492 181.534 121.073 181.039 120.766C180.549 120.458 179.971 120.305 179.305 120.305C178.57 120.305 177.935 120.487 177.398 120.852C176.867 121.211 176.458 121.68 176.172 122.258C175.885 122.836 175.742 123.456 175.742 124.117V125.18C175.742 126.086 175.898 126.854 176.211 127.484C176.528 128.109 176.969 128.586 177.531 128.914C178.094 129.237 178.747 129.398 179.492 129.398C179.976 129.398 180.414 129.331 180.805 129.195C181.2 129.055 181.542 128.846 181.828 128.57C182.114 128.289 182.336 127.94 182.492 127.523L184.273 128.023C184.086 128.628 183.771 129.159 183.328 129.617C182.885 130.07 182.338 130.424 181.687 130.68C181.036 130.93 180.305 131.055 179.492 131.055ZM207.238 119.805H205.3C205.186 119.247 204.985 118.758 204.699 118.336C204.418 117.914 204.074 117.56 203.668 117.273C203.267 116.982 202.821 116.763 202.332 116.617C201.842 116.471 201.332 116.398 200.8 116.398C199.832 116.398 198.954 116.643 198.168 117.133C197.386 117.622 196.764 118.344 196.3 119.297C195.842 120.25 195.613 121.419 195.613 122.805C195.613 124.19 195.842 125.359 196.3 126.312C196.764 127.266 197.386 127.987 198.168 128.477C198.954 128.966 199.832 129.211 200.8 129.211C201.332 129.211 201.842 129.138 202.332 128.992C202.821 128.846 203.267 128.63 203.668 128.344C204.074 128.052 204.418 127.695 204.699 127.273C204.985 126.846 205.186 126.357 205.3 125.805H207.238C207.092 126.622 206.827 127.354 206.441 128C206.056 128.646 205.577 129.195 205.004 129.648C204.431 130.096 203.787 130.437 203.074 130.672C202.366 130.906 201.608 131.023 200.8 131.023C199.436 131.023 198.222 130.69 197.16 130.023C196.097 129.357 195.261 128.409 194.652 127.18C194.043 125.951 193.738 124.492 193.738 122.805C193.738 121.117 194.043 119.659 194.652 118.43C195.261 117.201 196.097 116.253 197.16 115.586C198.222 114.919 199.436 114.586 200.8 114.586C201.608 114.586 202.366 114.703 203.074 114.937C203.787 115.172 204.431 115.516 205.004 115.969C205.577 116.417 206.056 116.964 206.441 117.609C206.827 118.25 207.092 118.982 207.238 119.805ZM215.324 131.055C214.24 131.055 213.29 130.797 212.472 130.281C211.66 129.766 211.024 129.044 210.566 128.117C210.113 127.19 209.886 126.107 209.886 124.867C209.886 123.617 210.113 122.526 210.566 121.594C211.024 120.661 211.66 119.937 212.472 119.422C213.29 118.906 214.24 118.648 215.324 118.648C216.407 118.648 217.355 118.906 218.168 119.422C218.985 119.937 219.621 120.661 220.074 121.594C220.532 122.526 220.761 123.617 220.761 124.867C220.761 126.107 220.532 127.19 220.074 128.117C219.621 129.044 218.985 129.766 218.168 130.281C217.355 130.797 216.407 131.055 215.324 131.055ZM215.324 129.398C216.147 129.398 216.824 129.187 217.355 128.766C217.886 128.344 218.28 127.789 218.535 127.102C218.79 126.414 218.918 125.669 218.918 124.867C218.918 124.065 218.79 123.318 218.535 122.625C218.28 121.932 217.886 121.372 217.355 120.945C216.824 120.518 216.147 120.305 215.324 120.305C214.501 120.305 213.824 120.518 213.293 120.945C212.761 121.372 212.368 121.932 212.113 122.625C211.858 123.318 211.73 124.065 211.73 124.867C211.73 125.669 211.858 126.414 212.113 127.102C212.368 127.789 212.761 128.344 213.293 128.766C213.824 129.187 214.501 129.398 215.324 129.398ZM225.75 123.586V130.805H223.906V118.805H225.687V120.68H225.843C226.125 120.07 226.552 119.581 227.125 119.211C227.697 118.836 228.437 118.648 229.343 118.648C230.156 118.648 230.867 118.815 231.476 119.148C232.085 119.477 232.559 119.977 232.898 120.648C233.237 121.315 233.406 122.159 233.406 123.18V130.805H231.562V123.305C231.562 122.362 231.317 121.628 230.828 121.102C230.338 120.57 229.666 120.305 228.812 120.305C228.223 120.305 227.697 120.432 227.234 120.687C226.776 120.943 226.414 121.315 226.148 121.805C225.882 122.294 225.75 122.888 225.75 123.586ZM245.605 121.492L243.949 121.961C243.845 121.685 243.691 121.417 243.488 121.156C243.29 120.891 243.019 120.672 242.675 120.5C242.331 120.328 241.891 120.242 241.355 120.242C240.621 120.242 240.009 120.411 239.519 120.75C239.035 121.083 238.792 121.508 238.792 122.023C238.792 122.482 238.959 122.844 239.292 123.109C239.626 123.375 240.147 123.596 240.855 123.773L242.636 124.211C243.709 124.471 244.509 124.87 245.035 125.406C245.561 125.937 245.824 126.622 245.824 127.461C245.824 128.148 245.626 128.763 245.23 129.305C244.839 129.846 244.292 130.273 243.589 130.586C242.886 130.898 242.068 131.055 241.136 131.055C239.912 131.055 238.899 130.789 238.097 130.258C237.295 129.727 236.787 128.951 236.574 127.93L238.324 127.492C238.49 128.138 238.805 128.622 239.269 128.945C239.738 129.268 240.35 129.43 241.105 129.43C241.964 129.43 242.647 129.247 243.152 128.883C243.662 128.513 243.917 128.07 243.917 127.555C243.917 127.138 243.772 126.789 243.48 126.508C243.188 126.221 242.74 126.008 242.136 125.867L240.136 125.398C239.037 125.138 238.23 124.734 237.714 124.188C237.204 123.635 236.949 122.945 236.949 122.117C236.949 121.44 237.139 120.841 237.519 120.32C237.904 119.799 238.428 119.391 239.089 119.094C239.756 118.797 240.511 118.648 241.355 118.648C242.542 118.648 243.475 118.909 244.152 119.43C244.834 119.951 245.318 120.638 245.605 121.492ZM256.492 125.898V118.805H258.335V130.805H256.492V128.773H256.367C256.085 129.383 255.648 129.901 255.054 130.328C254.46 130.75 253.71 130.961 252.804 130.961C252.054 130.961 251.387 130.797 250.804 130.469C250.221 130.135 249.762 129.635 249.429 128.969C249.096 128.297 248.929 127.451 248.929 126.43V118.805H250.773V126.305C250.773 127.18 251.018 127.878 251.507 128.398C252.002 128.919 252.632 129.18 253.398 129.18C253.856 129.18 254.322 129.062 254.796 128.828C255.275 128.594 255.676 128.234 255.999 127.75C256.327 127.266 256.492 126.648 256.492 125.898ZM262.042 130.805V118.805H263.824V120.68H263.98C264.23 120.039 264.633 119.542 265.191 119.187C265.748 118.828 266.417 118.648 267.199 118.648C267.99 118.648 268.649 118.828 269.175 119.187C269.706 119.542 270.12 120.039 270.417 120.68H270.542C270.85 120.06 271.31 119.568 271.925 119.203C272.54 118.833 273.277 118.648 274.136 118.648C275.209 118.648 276.087 118.984 276.769 119.656C277.451 120.323 277.792 121.362 277.792 122.773V130.805H275.949V122.773C275.949 121.888 275.706 121.255 275.222 120.875C274.738 120.495 274.167 120.305 273.511 120.305C272.667 120.305 272.014 120.56 271.55 121.07C271.087 121.576 270.855 122.216 270.855 122.992V130.805H268.98V122.586C268.98 121.904 268.758 121.354 268.316 120.937C267.873 120.516 267.303 120.305 266.605 120.305C266.126 120.305 265.678 120.432 265.261 120.687C264.85 120.943 264.516 121.297 264.261 121.75C264.011 122.198 263.886 122.716 263.886 123.305V130.805H262.042ZM286.525 131.055C285.368 131.055 284.371 130.799 283.532 130.289C282.699 129.773 282.056 129.055 281.603 128.133C281.155 127.206 280.931 126.128 280.931 124.898C280.931 123.669 281.155 122.586 281.603 121.648C282.056 120.706 282.686 119.971 283.493 119.445C284.306 118.914 285.254 118.648 286.337 118.648C286.962 118.648 287.579 118.753 288.189 118.961C288.798 119.169 289.353 119.508 289.853 119.977C290.353 120.44 290.751 121.055 291.048 121.82C291.345 122.586 291.493 123.529 291.493 124.648V125.43H282.243V123.836H289.618C289.618 123.159 289.483 122.555 289.212 122.023C288.946 121.492 288.566 121.073 288.071 120.766C287.582 120.458 287.004 120.305 286.337 120.305C285.603 120.305 284.967 120.487 284.431 120.852C283.9 121.211 283.491 121.68 283.204 122.258C282.918 122.836 282.775 123.456 282.775 124.117V125.18C282.775 126.086 282.931 126.854 283.243 127.484C283.561 128.109 284.001 128.586 284.564 128.914C285.126 129.237 285.78 129.398 286.525 129.398C287.009 129.398 287.446 129.331 287.837 129.195C288.233 129.055 288.574 128.846 288.861 128.57C289.147 128.289 289.368 127.94 289.525 127.523L291.306 128.023C291.118 128.628 290.803 129.159 290.361 129.617C289.918 130.07 289.371 130.424 288.72 130.68C288.069 130.93 287.337 131.055 286.525 131.055ZM294.628 130.805V118.805H296.409V120.617H296.534C296.753 120.023 297.149 119.542 297.722 119.172C298.295 118.802 298.941 118.617 299.659 118.617C299.795 118.617 299.964 118.62 300.167 118.625C300.37 118.63 300.524 118.638 300.628 118.648V120.523C300.566 120.508 300.422 120.484 300.198 120.453C299.98 120.417 299.748 120.398 299.503 120.398C298.92 120.398 298.399 120.521 297.941 120.766C297.487 121.005 297.128 121.339 296.862 121.766C296.602 122.187 296.472 122.669 296.472 123.211V130.805H294.628ZM309.911 130.805V114.805H311.849V129.086H319.286V130.805H309.911ZM325.897 131.086C325.137 131.086 324.447 130.943 323.827 130.656C323.207 130.365 322.715 129.945 322.35 129.398C321.986 128.846 321.804 128.18 321.804 127.398C321.804 126.711 321.939 126.154 322.21 125.727C322.481 125.294 322.843 124.956 323.296 124.711C323.749 124.466 324.249 124.284 324.796 124.164C325.348 124.039 325.903 123.94 326.46 123.867C327.189 123.773 327.78 123.703 328.233 123.656C328.692 123.604 329.025 123.518 329.233 123.398C329.447 123.279 329.554 123.07 329.554 122.773V122.711C329.554 121.94 329.343 121.341 328.921 120.914C328.504 120.487 327.871 120.273 327.022 120.273C326.142 120.273 325.452 120.466 324.952 120.852C324.452 121.237 324.1 121.648 323.897 122.086L322.147 121.461C322.46 120.732 322.877 120.164 323.397 119.758C323.923 119.346 324.496 119.06 325.116 118.898C325.741 118.732 326.356 118.648 326.96 118.648C327.345 118.648 327.788 118.695 328.288 118.789C328.793 118.878 329.28 119.062 329.749 119.344C330.223 119.625 330.616 120.049 330.929 120.617C331.241 121.185 331.397 121.945 331.397 122.898V130.805H329.554V129.18H329.46C329.335 129.44 329.127 129.719 328.835 130.016C328.543 130.313 328.155 130.565 327.671 130.773C327.186 130.982 326.595 131.086 325.897 131.086ZM326.179 129.43C326.908 129.43 327.522 129.286 328.022 129C328.528 128.714 328.908 128.344 329.163 127.891C329.423 127.437 329.554 126.961 329.554 126.461V124.773C329.475 124.867 329.304 124.953 329.038 125.031C328.778 125.104 328.475 125.169 328.132 125.227C327.793 125.279 327.462 125.326 327.14 125.367C326.822 125.404 326.564 125.435 326.366 125.461C325.887 125.523 325.439 125.625 325.022 125.766C324.611 125.901 324.278 126.107 324.022 126.383C323.772 126.654 323.647 127.023 323.647 127.492C323.647 128.133 323.884 128.617 324.358 128.945C324.837 129.268 325.444 129.43 326.179 129.43ZM335.85 135.305C335.538 135.305 335.259 135.279 335.014 135.227C334.77 135.18 334.6 135.133 334.507 135.086L334.975 133.461C335.423 133.576 335.819 133.617 336.163 133.586C336.507 133.555 336.811 133.401 337.077 133.125C337.348 132.854 337.595 132.414 337.819 131.805L338.163 130.867L333.725 118.805H335.725L339.038 128.367H339.163L342.475 118.805H344.475L339.382 132.555C339.152 133.174 338.869 133.688 338.53 134.094C338.192 134.505 337.798 134.81 337.35 135.008C336.908 135.206 336.408 135.305 335.85 135.305ZM351.841 131.055C350.684 131.055 349.687 130.799 348.848 130.289C348.015 129.773 347.372 129.055 346.919 128.133C346.471 127.206 346.247 126.128 346.247 124.898C346.247 123.669 346.471 122.586 346.919 121.648C347.372 120.706 348.002 119.971 348.809 119.445C349.622 118.914 350.57 118.648 351.653 118.648C352.278 118.648 352.895 118.753 353.505 118.961C354.114 119.169 354.669 119.508 355.169 119.977C355.669 120.44 356.067 121.055 356.364 121.82C356.661 122.586 356.809 123.529 356.809 124.648V125.43H347.559V123.836H354.934C354.934 123.159 354.799 122.555 354.528 122.023C354.262 121.492 353.882 121.073 353.387 120.766C352.898 120.458 352.32 120.305 351.653 120.305C350.919 120.305 350.283 120.487 349.747 120.852C349.216 121.211 348.807 121.68 348.52 122.258C348.234 122.836 348.091 123.456 348.091 124.117V125.18C348.091 126.086 348.247 126.854 348.559 127.484C348.877 128.109 349.317 128.586 349.88 128.914C350.442 129.237 351.096 129.398 351.841 129.398C352.325 129.398 352.762 129.331 353.153 129.195C353.549 129.055 353.89 128.846 354.176 128.57C354.463 128.289 354.684 127.94 354.841 127.523L356.622 128.023C356.434 128.628 356.119 129.159 355.676 129.617C355.234 130.07 354.687 130.424 354.036 130.68C353.385 130.93 352.653 131.055 351.841 131.055ZM359.944 130.805V118.805H361.725V120.617H361.85C362.069 120.023 362.465 119.542 363.038 119.172C363.611 118.802 364.256 118.617 364.975 118.617C365.111 118.617 365.28 118.62 365.483 118.625C365.686 118.63 365.84 118.638 365.944 118.648V120.523C365.881 120.508 365.738 120.484 365.514 120.453C365.296 120.417 365.064 120.398 364.819 120.398C364.236 120.398 363.715 120.521 363.256 120.766C362.803 121.005 362.444 121.339 362.178 121.766C361.918 122.187 361.788 122.669 361.788 123.211V130.805H359.944Z" fill="white"/>
<defs>
<clipPath id="clip0_69_18">
<rect width="350" height="95" fill="white" transform="translate(16 15.8047)"/>
</clipPath>
</defs>
</svg>
