<?xml version="1.0" encoding="UTF-8" standalone="no"?>
<svg
   version="1.1"
   width="1930.125"
   height="825.36902"
   style="clip-rule:evenodd;fill-rule:evenodd;image-rendering:optimizeQuality;shape-rendering:geometricPrecision;text-rendering:geometricPrecision"
   id="svg82"
   xmlns="http://www.w3.org/2000/svg"
   xmlns:svg="http://www.w3.org/2000/svg">
  <defs
     id="defs82" />
  <g
     id="g1"
     transform="translate(-666.37514,-1228.3764)">
    <path
       style="opacity:0.974"
       fill="#fefefe"
       d="m 2400.5,1228.5 c 27.91,-0.33 55.74,0 83.5,1 0.5,28.66 0.67,57.33 0.5,86 32.33,0 64.67,0 97,0 0,23.33 0,46.67 0,70 -32.33,0 -64.67,0 -97,0 -0.17,42 0,84 0.5,126 1.48,9.48 6.65,15.98 15.5,19.5 5.28,1.03 10.62,1.69 16,2 21.67,-0.38 43.34,-1.21 65,-2.5 0.65,27.39 -0.01,54.56 -2,81.5 -13.89,2.41 -27.89,3.75 -42,4 -23.67,0.67 -47.33,0.67 -71,0 -27.32,-2.73 -46.49,-16.56 -57.5,-41.5 -3.59,-9.01 -5.92,-18.34 -7,-28 -1.46,-53.65 -1.96,-107.31 -1.5,-161 -13.33,0 -26.67,0 -40,0 0,-23.33 0,-46.67 0,-70 13.33,0 26.67,0 40,0 0,-29 0,-58 0,-87 z"
       id="path1" />
  </g>
  <g
     id="g2"
     transform="translate(-666.37514,-1228.3764)">
    <path
       style="opacity:0.955"
       fill="#fefefe"
       d="m 1379.5,1310.5 c 33.67,-0.17 67.33,0 101,0.5 1.2,0.9 2.03,2.07 2.5,3.5 0.33,7.67 0.67,15.33 1,23 18.52,-13.62 39.35,-21.12 62.5,-22.5 33.42,-3.7 65.09,1.97 95,17 24.24,15.59 40.07,37.43 47.5,65.5 5.72,21.96 8.39,44.29 8,67 0.5,50.67 0.67,101.33 0.5,152 -27.67,0 -55.33,0 -83,0 -0.03,-53.31 -0.03,-106.48 0,-159.5 1.15,-42.84 -19.51,-66.17 -62,-70 -20.29,-2.05 -39.63,1.29 -58,10 -3.51,2.26 -6.85,4.76 -10,7.5 -0.83,215.67 -1.33,431.33 -1.5,647 -34.61,1.99 -69.44,2.66 -104.5,2 -0.33,-247.74 0,-495.4 1,-743 z"
       id="path2" />
  </g>
  <g
     id="g3"
     transform="translate(-666.37514,-1228.3764)">
    <path
       style="opacity:0.972"
       fill="#fefefe"
       d="m 1868.5,1311.5 c 40.77,-2.22 78.44,7.28 113,28.5 36.33,26.81 55.83,62.98 58.5,108.5 0.59,12.34 0.42,24.68 -0.5,37 -81,0 -162,0 -243,0 6.55,36.71 28.55,55.88 66,57.5 22.83,2.08 45.16,-0.25 67,-7 12.81,-4.48 22.15,-12.82 28,-25 26.66,-0.5 53.33,-0.67 80,-0.5 -4.47,42.3 -26.13,72.14 -65,89.5 -37.67,14.58 -76.67,19.92 -117,16 -36.94,-1.53 -69.61,-13.86 -98,-37 -23.57,-24.32 -37.07,-53.48 -40.5,-87.5 -4.75,-35.21 -0.41,-69.21 13,-102 18.44,-36.66 47.6,-60.16 87.5,-70.5 16.93,-4.05 33.93,-6.55 51,-7.5 z m 9,73 c 19.05,-0.22 37.05,3.95 54,12.5 11.98,7.82 19.98,18.66 24,32.5 -51.66,1 -103.33,1.33 -155,1 7.64,-23.46 23.64,-37.63 48,-42.5 9.75,-1.69 19.42,-2.86 29,-3.5 z"
       id="path3" />
  </g>
  <g
     id="g4"
     transform="translate(-666.37514,-1228.3764)">
    <path
       style="opacity:0.969"
       fill="#fefefe"
       d="m 2016.5,1314.5 c 32.67,-0.17 65.34,0 98,0.5 23.2,28.89 46.03,58.06 68.5,87.5 22.95,-29.08 45.79,-58.24 68.5,-87.5 32.66,-0.5 65.33,-0.67 98,-0.5 -0.11,2.28 -0.94,4.28 -2.5,6 -37.81,48.77 -75.97,97.27 -114.5,145.5 39.45,49.74 78.79,99.58 118,149.5 -32.99,1.17 -65.99,1.33 -99,0.5 -22.83,-28.83 -45.67,-57.67 -68.5,-86.5 -22.69,28.52 -45.19,57.19 -67.5,86 -33,1.33 -66,1.33 -99,0 38.81,-49.98 77.81,-99.81 117,-149.5 -39.62,-50.11 -78.62,-100.61 -117,-151.5 z"
       id="path4" />
  </g>
  <g
     id="g5"
     transform="translate(-666.37514,-1228.3764)">
    <path
       style="opacity:0.983"
       fill="#d0fe64"
       d="m 675.5,1578.5 c -0.131,0.74 0.036,1.41 0.5,2 17.144,-1.13 34.478,-1.13 52,0 0.995,-0.57 1.828,-1.23 2.5,-2 3.74,0.26 7.406,-0.07 11,-1 0.745,-2.25 2.078,-4.08 4,-5.5 -0.333,-0.33 -0.667,-0.67 -1,-1 1.481,-0.98 2.815,-2.15 4,-3.5 -0.209,-0.59 -0.543,-1.09 -1,-1.5 3.779,-2.6 6.113,-6.1 7,-10.5 2.748,0.1 3.414,-0.9 2,-3 1.291,0.24 2.291,-0.1 3,-1 2.727,-4.86 5.394,-9.2 8,-13 32.967,-47.86 65.467,-95.86 97.5,-144 0.833,-0.83 1.667,-1.67 2.5,-2.5 -1.333,-1.84 -1.166,-2.34 0.5,-1.5 2.467,-4.1 5.301,-7.93 8.5,-11.5 1.503,-4.21 4.003,-4.38 7.5,-0.5 4.899,8.28 8.899,16.95 12,26 0.151,7.34 1.318,14.5 3.5,21.5 -1.809,10.09 -3.976,20.26 -6.5,30.5 -3.201,4.35 -5.701,9.01 -7.5,14 -22.353,33.67 -44.353,66.33 -66,98 -2.239,3.15 -4.572,6.32 -7,9.5 3.589,0.21 7.089,0.71 10.5,1.5 0.671,-0.75 1.504,-1.09 2.5,-1 -0.131,0.74 0.036,1.41 0.5,2 75.196,-0.73 150.53,-0.73 226,0 4.93,-0.64 9.77,-1.31 14.5,-2 7.01,0.17 14.01,0 21,-0.5 -0.46,-0.41 -0.79,-0.91 -1,-1.5 1.33,-1 2.67,-2 4,-3 -0.83,-0.95 -0.99,-1.95 -0.5,-3 1.15,0.96 2.15,0.62 3,-1 2.39,-4.73 5.22,-9.06 8.5,-13 6.6,-8.6 12.76,-17.6 18.5,-27 0.48,-0.95 0.65,-1.95 0.5,-3 3.87,-2.71 6.53,-6.38 8,-11 4.28,-4.27 7.28,-9.27 9,-15 2.44,0.15 3.11,-0.69 2,-2.5 3.73,-3.39 7.06,-7.06 10,-11 -0.33,-0.33 -0.67,-0.67 -1,-1 11.43,-16.02 22.6,-31.86 33.5,-47.5 0.46,-1.24 -0.04,-2.08 -1.5,-2.5 1.54,-0.29 2.88,-0.96 4,-2 -0.33,-0.33 -0.67,-0.67 -1,-1 5.85,-4.74 10.18,-10.57 13,-17.5 10.35,-14.18 20.35,-28.68 30,-43.5 -5.01,-0.87 -4.67,-1.54 1,-2 -72.17,-0.83 -144.17,-0.67 -216,0.5 -1.89,-0.2 -3.39,0.46 -4.5,2 -1.07,-0.69 -2.23,-1.19 -3.5,-1.5 1,-0.33 2,-0.67 3,-1 -0.67,-0.17 -1.33,-0.33 -2,-0.5 -3.58,0.24 -7.247,0.41 -11,0.5 2.503,0.13 4.503,1.13 6,3 -0.948,0.48 -1.948,0.65 -3,0.5 1.104,1.89 2.437,3.56 4,5 18.42,28.81 37.26,56.81 56.5,84 5.18,9.52 9.68,19.35 13.5,29.5 -0.33,1 -0.67,2 -1,3 4.71,10.42 4.71,20.76 0,31 1.6,3.78 0.76,6.94 -2.5,9.5 -0.74,1.94 -0.58,3.77 0.5,5.5 -3.29,1.36 -4.79,3.86 -4.5,7.5 -1.74,2.72 -3.58,5.38 -5.5,8 0.33,0.67 0.67,1.33 1,2 -3.12,2.3 -6.12,2.3 -9,0 -15.9,-23.85 -31.73,-47.52 -47.5,-71 -0.45,2.43 -1.28,2.6 -2.5,0.5 1.9,-1.98 1.23,-3.64 -2,-5 0.758,-1.36 0.258,-2.53 -1.5,-3.5 -0.333,0.67 -0.667,1.33 -1,2 -0.595,-1.4 -0.428,-2.73 0.5,-4 -3.84,-4.79 -7.507,-9.79 -11,-15 -0.746,-1.24 -1.079,-2.57 -1,-4 -1,0 -2,0 -3,0 -1.75,-4.52 -4.083,-8.86 -7,-13 -3.61,1.35 -3.943,0.68 -1,-2 -0.124,-0.61 -0.457,-0.94 -1,-1 -12.688,-18.35 -25.355,-36.68 -38,-55 -0.329,-2.53 -1.495,-3.53 -3.5,-3 -0.492,-1.05 -0.326,-2.05 0.5,-3 -2.412,-3.81 -5.079,-7.48 -8,-11 -0.692,0.53 -1.192,1.19 -1.5,2 -6.419,-0.81 -12.919,-1.31 -19.5,-1.5 4.667,-0.33 9.333,-0.67 14,-1 -82.914,-0.41 -165.914,-0.58 -249,-0.5 0,-18 0,-36 0,-54 225.667,0 451.33,0 677,0 0,105.67 0,211.33 0,317 -225.67,0 -451.333,0 -677,0 -0.333,-17.68 0,-35.35 1,-53 2.584,-0.89 5.251,-1.23 8,-1 z m 321,-205 c -1.273,-0.58 -1.273,-1.24 0,-2 0.963,0.47 0.963,1.14 0,2 z m 279,198 c 0,2 0,4 0,6 -5.48,0.99 -11.14,1.32 -17,1 -26.33,0 -52.67,0 -79,0 -7.45,-0.33 -14.45,-0.33 -21,0 17.81,-26.41 35.48,-52.41 53,-78 12.57,-18.93 24.57,-36.93 36,-54 6.24,-7.31 11.57,-15.31 16,-24 1.34,-0.85 2.34,-2.01 3,-3.5 0.95,-0.48 1.95,-0.65 3,-0.5 0.17,-1.32 -0.16,-2.49 -1,-3.5 1.87,-2.22 3.87,-4.39 6,-6.5 1,54.33 1.33,108.66 1,163 z"
       id="path5" />
  </g>
  <g
     id="g6"
     transform="translate(-666.37514,-1228.3764)">
    <path
       style="opacity:0.00400002"
       fill="#feff00"
       d="m 676.5,1371.5 c 1.101,-1.1 2.434,-1.26 4,-0.5 -1.293,0.49 -2.627,0.66 -4,0.5 z"
       id="path6" />
  </g>
  <g
     id="g7"
     transform="translate(-666.37514,-1228.3764)">
    <path
       style="opacity:0.00400002"
       fill="#feff00"
       d="m 681.5,1370.5 c 1.333,0.67 1.333,0.67 0,0 z"
       id="path7" />
  </g>
  <g
     id="g8"
     transform="translate(-666.37514,-1228.3764)">
    <path
       style="opacity:0.00400002"
       fill="#feff00"
       d="m 683.5,1371.5 c 62.165,-1.17 124.499,-1.33 187,-0.5 -62.332,0.5 -124.666,0.67 -187,0.5 z"
       id="path8" />
  </g>
  <g
     id="g9"
     transform="translate(-666.37514,-1228.3764)">
    <path
       style="opacity:0.00400002"
       fill="#feff00"
       d="m 871.5,1370.5 c 1.333,0.67 1.333,0.67 0,0 z"
       id="path9" />
  </g>
  <g
     id="g10"
     transform="translate(-666.37514,-1228.3764)">
    <path
       style="opacity:0.00400002"
       fill="#feff00"
       d="m 874.5,1371.5 c 3.811,-1.15 7.811,-1.31 12,-0.5 -3.986,0.5 -7.986,0.67 -12,0.5 z"
       id="path10" />
  </g>
  <g
     id="g11"
     transform="translate(-666.37514,-1228.3764)">
    <path
       style="opacity:0.00400002"
       fill="#feff00"
       d="m 890.5,1371.5 c 1.446,-1.11 3.113,-1.28 5,-0.5 -1.634,0.49 -3.301,0.66 -5,0.5 z"
       id="path11" />
  </g>
  <g
     id="g12"
     transform="translate(-666.37514,-1228.3764)">
    <path
       style="opacity:0.00400002"
       fill="#fffe0c"
       d="m 1011.5,1370.5 c 63.67,-0.17 127.33,0 191,0.5 -63.83,0.83 -127.5,0.67 -191,-0.5 z"
       id="path12" />
  </g>
  <g
     id="g13"
     transform="translate(-666.37514,-1228.3764)">
    <path
       style="opacity:0.00400002"
       fill="#feff00"
       d="m 1206.5,1371.5 c 1.1,-1.1 2.43,-1.26 4,-0.5 -1.29,0.49 -2.63,0.66 -4,0.5 z"
       id="path13" />
  </g>
  <g
     id="g14"
     transform="translate(-666.37514,-1228.3764)">
    <path
       style="opacity:0.00400002"
       fill="#feff00"
       d="m 1215.5,1371.5 c 0.75,-1.07 1.75,-1.24 3,-0.5 -0.95,0.48 -1.95,0.65 -3,0.5 z"
       id="path14" />
  </g>
  <g
     id="g15"
     transform="translate(-666.37514,-1228.3764)">
    <path
       style="opacity:0.00400002"
       fill="#000000"
       d="m 884.5,1372.5 c 1.333,0.67 1.333,0.67 0,0 z"
       id="path15" />
  </g>
  <g
     id="g16"
     transform="translate(-666.37514,-1228.3764)">
    <path
       style="opacity:0.00400002"
       fill="#feff00"
       d="m 1003.5,1372.5 c 1.33,0.67 1.33,0.67 0,0 z"
       id="path16" />
  </g>
  <g
     id="g17"
     transform="translate(-666.37514,-1228.3764)">
    <path
       style="opacity:0.00400002"
       fill="#000000"
       d="m 923.5,1375.5 c 1.333,0.67 1.333,0.67 0,0 z"
       id="path17" />
  </g>
  <g
     id="g18"
     transform="translate(-666.37514,-1228.3764)">
    <path
       style="opacity:0.00400002"
       fill="#000000"
       d="m 885.5,1377.5 c 1.333,0.67 1.333,0.67 0,0 z"
       id="path18" />
  </g>
  <g
     id="g19"
     transform="translate(-666.37514,-1228.3764)">
    <path
       style="opacity:0.00400002"
       fill="#feff00"
       d="m 1000.5,1377.5 c 1.33,0.67 1.33,0.67 0,0 z"
       id="path19" />
  </g>
  <g
     id="g20"
     transform="translate(-666.37514,-1228.3764)">
    <path
       style="opacity:0.00400002"
       fill="#feff00"
       d="m 867.5,1382.5 c 1.333,0.67 1.333,0.67 0,0 z"
       id="path20" />
  </g>
  <g
     id="g21"
     transform="translate(-666.37514,-1228.3764)">
    <path
       style="opacity:0.00400002"
       fill="#feff00"
       d="m 923.5,1387.5 c 1.025,0.4 1.192,1.06 0.5,2 -0.464,-0.59 -0.631,-1.26 -0.5,-2 z"
       id="path21" />
  </g>
  <g
     id="g22"
     transform="translate(-666.37514,-1228.3764)">
    <path
       style="opacity:0.00400002"
       fill="#a3a21a"
       d="m 933.5,1387.5 c -0.397,1.03 -1.063,1.19 -2,0.5 0.594,-0.46 1.261,-0.63 2,-0.5 z"
       id="path22" />
  </g>
  <g
     id="g23"
     transform="translate(-666.37514,-1228.3764)">
    <path
       style="opacity:0.00400002"
       fill="#feff00"
       d="m 926.5,1392.5 c 1.333,0.67 1.333,0.67 0,0 z"
       id="path23" />
  </g>
  <g
     id="g24"
     transform="translate(-666.37514,-1228.3764)">
    <path
       style="opacity:0.00400002"
       fill="#4f4e17"
       d="m 923.5,1396.5 c 1.025,0.4 1.192,1.06 0.5,2 -0.464,-0.59 -0.631,-1.26 -0.5,-2 z"
       id="path24" />
  </g>
  <g
     id="g25"
     transform="translate(-666.37514,-1228.3764)">
    <path
       style="opacity:0.00400002"
       fill="#feff00"
       d="m 926.5,1397.5 c 1.333,0.67 1.333,0.67 0,0 z"
       id="path25" />
  </g>
  <g
     id="g26"
     transform="translate(-666.37514,-1228.3764)">
    <path
       style="opacity:0.00400002"
       fill="#feff00"
       d="m 894.5,1399.5 c 1.333,0.67 1.333,0.67 0,0 z"
       id="path26" />
  </g>
  <g
     id="g27"
     transform="translate(-666.37514,-1228.3764)">
    <path
       style="opacity:0.00400002"
       fill="#feff00"
       d="m 1021.5,1402.5 c 1.33,0.67 1.33,0.67 0,0 z"
       id="path27" />
  </g>
  <g
     id="g28"
     transform="translate(-666.37514,-1228.3764)">
    <path
       style="opacity:0.00400002"
       fill="#000000"
       d="m 1196.5,1402.5 c 1.33,0.67 1.33,0.67 0,0 z"
       id="path28" />
  </g>
  <g
     id="g29"
     transform="translate(-666.37514,-1228.3764)">
    <path
       style="opacity:0.00400002"
       fill="#000000"
       d="m 1021.5,1405.5 c 1.33,0.67 1.33,0.67 0,0 z"
       id="path29" />
  </g>
  <g
     id="g30"
     transform="translate(-666.37514,-1228.3764)">
    <path
       style="opacity:0.00400002"
       fill="#feff00"
       d="m 944.5,1407.5 c 1.333,0.67 1.333,0.67 0,0 z"
       id="path30" />
  </g>
  <g
     id="g31"
     transform="translate(-666.37514,-1228.3764)">
    <path
       style="opacity:0.00400002"
       fill="#feff00"
       d="m 897.5,1409.5 c 1.025,0.4 1.192,1.06 0.5,2 -0.464,-0.59 -0.631,-1.26 -0.5,-2 z"
       id="path31" />
  </g>
  <g
     id="g32"
     transform="translate(-666.37514,-1228.3764)">
    <path
       style="opacity:0.00400002"
       fill="#feff00"
       d="m 947.5,1410.5 c 1.333,0.67 1.333,0.67 0,0 z"
       id="path32" />
  </g>
  <g
     id="g33"
     transform="translate(-666.37514,-1228.3764)">
    <path
       style="opacity:0.00400002"
       fill="#4f4e17"
       d="m 1184.5,1409.5 c 1.03,0.4 1.19,1.06 0.5,2 -0.46,-0.59 -0.63,-1.26 -0.5,-2 z"
       id="path33" />
  </g>
  <g
     id="g34"
     transform="translate(-666.37514,-1228.3764)">
    <path
       style="opacity:0.00400002"
       fill="#feff00"
       d="m 1196.5,1415.5 c -0.67,-1.33 -0.67,-1.33 0,0 z"
       id="path34" />
  </g>
  <g
     id="g35"
     transform="translate(-666.37514,-1228.3764)">
    <path
       style="opacity:0.00400002"
       fill="#feff00"
       d="m 899.5,1423.5 c 0.397,-1.03 1.063,-1.19 2,-0.5 -0.594,0.46 -1.261,0.63 -2,0.5 z"
       id="path35" />
  </g>
  <g
     id="g36"
     transform="translate(-666.37514,-1228.3764)">
    <path
       style="opacity:0.00400002"
       fill="#feff00"
       d="m 834.5,1425.5 c 1.333,0.67 1.333,0.67 0,0 z"
       id="path36" />
  </g>
  <g
     id="g37"
     transform="translate(-666.37514,-1228.3764)">
    <path
       style="opacity:0.00400002"
       fill="#fffe36"
       d="m 897.5,1437.5 c 1.098,1.1 1.265,2.43 0.5,4 -0.49,-1.29 -0.657,-2.63 -0.5,-4 z"
       id="path37" />
  </g>
  <g
     id="g38"
     transform="translate(-666.37514,-1228.3764)">
    <path
       style="opacity:0.00799997"
       fill="#7f807f"
       d="m 971.5,1442.5 c -0.667,0.67 -0.667,0.67 0,0 z"
       id="path38" />
  </g>
  <g
     id="g39"
     transform="translate(-666.37514,-1228.3764)">
    <path
       style="opacity:0.00400002"
       fill="#feff00"
       d="m 894.5,1450.5 c 1.025,0.4 1.192,1.06 0.5,2 -0.464,-0.59 -0.631,-1.26 -0.5,-2 z"
       id="path39" />
  </g>
  <g
     id="g40"
     transform="translate(-666.37514,-1228.3764)">
    <path
       style="opacity:0.00400002"
       fill="#feff00"
       d="m 973.5,1455.5 c 1.333,0.67 1.333,0.67 0,0 z"
       id="path40" />
  </g>
  <g
     id="g41"
     transform="translate(-666.37514,-1228.3764)">
    <path
       style="opacity:0.00400002"
       fill="#feff00"
       d="m 888.5,1465.5 c 1.333,0.67 1.333,0.67 0,0 z"
       id="path41" />
  </g>
  <g
     id="g42"
     transform="translate(-666.37514,-1228.3764)">
    <path
       style="opacity:0.00400002"
       fill="#feff00"
       d="m 985.5,1466.5 c 1.025,0.4 1.192,1.06 0.5,2 -0.464,-0.59 -0.631,-1.26 -0.5,-2 z"
       id="path42" />
  </g>
  <g
     id="g43"
     transform="translate(-666.37514,-1228.3764)">
    <path
       style="opacity:0.00400002"
       fill="#feff00"
       d="m 885.5,1470.5 c 1.333,0.67 1.333,0.67 0,0 z"
       id="path43" />
  </g>
  <g
     id="g44"
     transform="translate(-666.37514,-1228.3764)">
    <path
       style="opacity:0.00400002"
       fill="#feff00"
       d="m 887.5,1471.5 c 0.397,-1.03 1.063,-1.19 2,-0.5 -0.594,0.46 -1.261,0.63 -2,0.5 z"
       id="path44" />
  </g>
  <g
     id="g45"
     transform="translate(-666.37514,-1228.3764)">
    <path
       style="opacity:0.00400002"
       fill="#b9b818"
       d="m 1231.5,1472.5 c 2.5,0.01 2.67,0.68 0.5,2 -0.46,-0.59 -0.63,-1.26 -0.5,-2 z"
       id="path45" />
  </g>
  <g
     id="g46"
     transform="translate(-666.37514,-1228.3764)">
    <path
       style="opacity:0.00400002"
       fill="#000000"
       d="m 1145.5,1485.5 c 1.33,0.67 1.33,0.67 0,0 z"
       id="path46" />
  </g>
  <g
     id="g47"
     transform="translate(-666.37514,-1228.3764)">
    <path
       style="opacity:0.00400002"
       fill="#feff00"
       d="m 997.5,1490.5 c 1.333,0.67 1.333,0.67 0,0 z"
       id="path47" />
  </g>
  <g
     id="g48"
     transform="translate(-666.37514,-1228.3764)">
    <path
       style="opacity:0.00400002"
       fill="#feff00"
       d="m 1000.5,1490.5 c 1.33,0.67 1.33,0.67 0,0 z"
       id="path48" />
  </g>
  <g
     id="g49"
     transform="translate(-666.37514,-1228.3764)">
    <path
       style="opacity:0.00400002"
       fill="#feff00"
       d="m 870.5,1493.5 c 1.025,0.4 1.192,1.06 0.5,2 -0.464,-0.59 -0.631,-1.26 -0.5,-2 z"
       id="path49" />
  </g>
  <g
     id="g50"
     transform="translate(-666.37514,-1228.3764)">
    <path
       style="opacity:0.00400002"
       fill="#4f4e17"
       d="m 1139.5,1492.5 c 1.03,0.4 1.19,1.06 0.5,2 -0.46,-0.59 -0.63,-1.26 -0.5,-2 z"
       id="path50" />
  </g>
  <g
     id="g51"
     transform="translate(-666.37514,-1228.3764)">
    <path
       style="opacity:0.00400002"
       fill="#feff00"
       d="m 781.5,1495.5 c 1.025,0.4 1.192,1.06 0.5,2 -0.464,-0.59 -0.631,-1.26 -0.5,-2 z"
       id="path51" />
  </g>
  <g
     id="g52"
     transform="translate(-666.37514,-1228.3764)">
    <path
       style="opacity:0.00400002"
       fill="#feff00"
       d="m 1000.5,1495.5 c 1.33,0.67 1.33,0.67 0,0 z"
       id="path52" />
  </g>
  <g
     id="g53"
     transform="translate(-666.37514,-1228.3764)">
    <path
       style="opacity:0.00400002"
       fill="#feff00"
       d="m 1003.5,1500.5 c 1.33,0.67 1.33,0.67 0,0 z"
       id="path53" />
  </g>
  <g
     id="g54"
     transform="translate(-666.37514,-1228.3764)">
    <path
       style="opacity:0.00400002"
       fill="#c6c616"
       d="m 1115.5,1502.5 c 1.84,0.14 2.17,0.81 1,2 -0.8,-0.46 -1.13,-1.12 -1,-2 z"
       id="path54" />
  </g>
  <g
     id="g55"
     transform="translate(-666.37514,-1228.3764)">
    <path
       style="opacity:0.00400002"
       fill="#000000"
       d="m 1133.5,1505.5 c 1.33,0.67 1.33,0.67 0,0 z"
       id="path55" />
  </g>
  <g
     id="g56"
     transform="translate(-666.37514,-1228.3764)">
    <path
       style="opacity:0.00400002"
       fill="#78761a"
       d="m 1128.5,1515.5 c -1.07,-0.75 -1.24,-1.75 -0.5,-3 0.48,0.95 0.65,1.95 0.5,3 z"
       id="path56" />
  </g>
  <g
     id="g57"
     transform="translate(-666.37514,-1228.3764)">
    <path
       style="opacity:0.00400002"
       fill="#d0cf2f"
       d="m 1198.5,1520.5 c 3.3,-0.17 3.63,0.5 1,2 -0.8,-0.46 -1.13,-1.12 -1,-2 z"
       id="path57" />
  </g>
  <g
     id="g58"
     transform="translate(-666.37514,-1228.3764)">
    <path
       style="opacity:0.00400002"
       fill="#000000"
       d="m 769.5,1525.5 c 1.333,0.67 1.333,0.67 0,0 z"
       id="path58" />
  </g>
  <g
     id="g59"
     transform="translate(-666.37514,-1228.3764)">
    <path
       style="opacity:0.00400002"
       fill="#a3a21a"
       d="m 1115.5,1526.5 c 0.4,-1.03 1.06,-1.19 2,-0.5 -0.59,0.46 -1.26,0.63 -2,0.5 z"
       id="path59" />
  </g>
  <g
     id="g60"
     transform="translate(-666.37514,-1228.3764)">
    <path
       style="opacity:0.00400002"
       fill="#000000"
       d="m 1120.5,1526.5 c -0.67,-1.33 -0.67,-1.33 0,0 z"
       id="path60" />
  </g>
  <g
     id="g61"
     transform="translate(-666.37514,-1228.3764)">
    <path
       style="opacity:0.00400002"
       fill="#feff00"
       d="m 767.5,1538.5 c -0.667,-1.33 -0.667,-1.33 0,0 z"
       id="path61" />
  </g>
  <g
     id="g62"
     transform="translate(-666.37514,-1228.3764)">
    <path
       style="opacity:0.00400002"
       fill="#feff00"
       d="m 757.5,1542.5 c 1.333,0.67 1.333,0.67 0,0 z"
       id="path62" />
  </g>
  <g
     id="g63"
     transform="translate(-666.37514,-1228.3764)">
    <path
       style="opacity:0.00400002"
       fill="#feff00"
       d="m 1101.5,1550.5 c 1.33,0.67 1.33,0.67 0,0 z"
       id="path63" />
  </g>
  <g
     id="g64"
     transform="translate(-666.37514,-1228.3764)">
    <path
       style="opacity:0.00400002"
       fill="#bbbaa6"
       d="m 759.5,1551.5 c -0.709,0.9 -1.709,1.24 -3,1 0.304,-2.3 1.304,-2.63 3,-1 z"
       id="path64" />
  </g>
  <g
     id="g65"
     transform="translate(-666.37514,-1228.3764)">
    <path
       style="opacity:0.00400002"
       fill="#feff00"
       d="m 837.5,1555.5 c 1.333,0.67 1.333,0.67 0,0 z"
       id="path65" />
  </g>
  <g
     id="g66"
     transform="translate(-666.37514,-1228.3764)">
    <path
       style="opacity:0.00400002"
       fill="#4f4e17"
       d="m 1038.5,1556.5 c 0.4,-1.03 1.06,-1.19 2,-0.5 -0.59,0.46 -1.26,0.63 -2,0.5 z"
       id="path66" />
  </g>
  <g
     id="g67"
     transform="translate(-666.37514,-1228.3764)">
    <path
       style="opacity:0.00400002"
       fill="#feff00"
       d="m 1101.5,1556.5 c -0.67,-1.33 -0.67,-1.33 0,0 z"
       id="path67" />
  </g>
  <g
     id="g68"
     transform="translate(-666.37514,-1228.3764)">
    <path
       style="opacity:0.00400002"
       fill="#d6d250"
       d="m 1038.5,1559.5 c 0.4,-1.03 1.06,-1.19 2,-0.5 -0.59,0.46 -1.26,0.63 -2,0.5 z"
       id="path68" />
  </g>
  <g
     id="g69"
     transform="translate(-666.37514,-1228.3764)">
    <path
       style="opacity:0.00400002"
       fill="#feff00"
       d="m 1042.5,1558.5 c 1.33,0.67 1.33,0.67 0,0 z"
       id="path69" />
  </g>
  <g
     id="g70"
     transform="translate(-666.37514,-1228.3764)">
    <path
       style="opacity:0.00400002"
       fill="#feff00"
       d="m 1047.5,1560.5 c 1.33,0.67 1.33,0.67 0,0 z"
       id="path70" />
  </g>
  <g
     id="g71"
     transform="translate(-666.37514,-1228.3764)">
    <path
       style="opacity:0.00400002"
       fill="#feff00"
       d="m 1089.5,1560.5 c 1.33,0.67 1.33,0.67 0,0 z"
       id="path71" />
  </g>
  <g
     id="g72"
     transform="translate(-666.37514,-1228.3764)">
    <path
       style="opacity:0.00400002"
       fill="#a3a21a"
       d="m 745.5,1565.5 c 1.025,0.4 1.192,1.06 0.5,2 -0.464,-0.59 -0.631,-1.26 -0.5,-2 z"
       id="path72" />
  </g>
  <g
     id="g73"
     transform="translate(-666.37514,-1228.3764)">
    <path
       style="opacity:0.00400002"
       fill="#feff00"
       d="m 819.5,1568.5 c 1.333,0.67 1.333,0.67 0,0 z"
       id="path73" />
  </g>
  <g
     id="g74"
     transform="translate(-666.37514,-1228.3764)">
    <path
       style="opacity:0.00799997"
       fill="#d5d095"
       d="m 1275.5,1571.5 c 0.74,-0.13 1.41,0.04 2,0.5 -1.33,1.33 -1.33,2.67 0,4 -0.54,0.72 -1.21,1.22 -2,1.5 0,-2 0,-4 0,-6 z"
       id="path74" />
  </g>
  <g
     id="g75"
     transform="translate(-666.37514,-1228.3764)">
    <path
       style="opacity:0.047"
       fill="#b1ff19"
       d="m 675.5,1578.5 c 18.333,0 36.667,0 55,0 -0.672,0.77 -1.505,1.43 -2.5,2 -17.522,-1.13 -34.856,-1.13 -52,0 -0.464,-0.59 -0.631,-1.26 -0.5,-2 z"
       id="path75" />
  </g>
  <g
     id="g76"
     transform="translate(-666.37514,-1228.3764)">
    <path
       style="opacity:0.047"
       fill="#b0ff16"
       d="m 825.5,1578.5 c 80.333,0 160.667,0 241,0 -4.73,0.69 -9.57,1.36 -14.5,2 -75.47,-0.73 -150.804,-0.73 -226,0 -0.464,-0.59 -0.631,-1.26 -0.5,-2 z"
       id="path76" />
  </g>
  <g
     id="g77"
     transform="translate(-666.37514,-1228.3764)">
    <path
       style="opacity:0.047"
       fill="#b0ff14"
       d="m 1179.5,1578.5 c 26.33,0 52.67,0 79,0 -6.07,0.68 -12.23,1.35 -18.5,2 -19.99,-0.8 -39.99,-0.8 -60,0 -0.46,-0.59 -0.63,-1.26 -0.5,-2 z"
       id="path77" />
  </g>
  <g
     id="g78"
     transform="translate(-666.37514,-1228.3764)">
    <path
       style="opacity:0.973"
       fill="#fefefe"
       d="m 2045.5,1670.5 c 49.4,-4.15 95.74,5.68 139,29.5 28.9,17.23 50.4,41.06 64.5,71.5 3.62,8.37 6.12,17.03 7.5,26 -30.67,0.33 -61.34,0 -92,-1 -11.06,-18.38 -27.06,-30.21 -48,-35.5 -32.91,-8.9 -65.58,-8.23 -98,2 -36.99,14.67 -57.82,41.84 -62.5,81.5 -3.82,29.92 2.18,57.59 18,83 16.03,20.27 36.86,32.77 62.5,37.5 30.94,5.15 61.28,2.82 91,-7 21.51,-8.84 36.18,-24.18 44,-46 -35.67,-0.5 -71.33,-0.67 -107,-0.5 0,-26 0,-52 0,-78 65,0 130,0 195,0 0,72.33 0,144.67 0,217 -28,0 -56,0 -84,0 0.33,-19.68 0,-39.34 -1,-59 -18.29,36.4 -47.96,56.56 -89,60.5 -43.67,3.8 -85,-4.2 -124,-24 -52.19,-30.82 -81.36,-76.65 -87.5,-137.5 -6.39,-48.32 2.27,-93.65 26,-136 24.43,-37.65 58.26,-62.81 101.5,-75.5 14.66,-3.61 29.33,-6.44 44,-8.5 z"
       id="path78" />
  </g>
  <g
     id="g79"
     transform="translate(-666.37514,-1228.3764)">
    <path
       style="opacity:0.978"
       fill="#fefefe"
       d="m 678.5,1676.5 c 71.667,-0.17 143.334,0 215,0.5 27.992,1.66 52.992,10.99 75,28 21.512,22.35 31.51,49.18 30,80.5 1.251,24.07 -5.582,45.41 -20.5,64 -4.391,4.11 -9.224,7.61 -14.5,10.5 26.426,9.43 42.59,27.93 48.5,55.5 4.92,26.9 2.92,53.23 -6,79 -16.044,33.97 -42.878,53.13 -80.5,57.5 -82.333,0.5 -164.666,0.67 -247,0.5 -1.27,-124.57 -1.27,-249.9 0,-376 z m 83,76 c 36.335,-0.17 72.668,0 109,0.5 14.616,-0.24 27.449,4.26 38.5,13.5 7.52,11.72 9.52,24.39 6,38 -2.115,7.07 -6.282,12.57 -12.5,16.5 -12.341,5.67 -25.341,8.34 -39,8 -33.998,0.5 -67.998,0.67 -102,0.5 0,-25.67 0,-51.33 0,-77 z m 0,144 c 43.001,-0.17 86.001,0 129,0.5 34.144,2.1 47.644,19.93 40.5,53.5 -4.392,13.3 -13.559,21.13 -27.5,23.5 -8.577,1.76 -17.243,2.76 -26,3 -38.665,0.5 -77.332,0.67 -116,0.5 0,-27 0,-54 0,-81 z"
       id="path79" />
  </g>
  <g
     id="g80"
     transform="translate(-666.37514,-1228.3764)">
    <path
       style="opacity:0.978"
       fill="#fefefe"
       d="m 1036.5,1676.5 c 72,-0.17 144,0 216,0.5 29.52,1.39 55.85,11.06 79,29 18.7,18.57 29.53,41.07 32.5,67.5 4.43,28.26 2.1,55.92 -7,83 -6.14,13.81 -14.97,25.64 -26.5,35.5 -8.53,6.09 -17.2,11.93 -26,17.5 23.67,47.33 47.33,94.67 71,142 -30.33,1.33 -60.67,1.33 -91,0 -20,-40.67 -40,-81.33 -60,-122 -34.99,-1 -69.99,-1.33 -105,-1 0,41.33 0,82.67 0,124 -27.67,0 -55.33,0 -83,0 0,-125.33 0,-250.67 0,-376 z m 83,75 c 39.33,-0.17 78.67,0 118,0.5 39.27,4.03 55.77,25.53 49.5,64.5 -5.39,18.39 -17.56,29.56 -36.5,33.5 -6.6,1.43 -13.27,2.43 -20,3 -37,0.5 -74,0.67 -111,0.5 0,-34 0,-68 0,-102 z"
       id="path80" />
  </g>
  <g
     id="g81"
     transform="translate(-666.37514,-1228.3764)">
    <path
       style="opacity:0.979"
       fill="#fefefe"
       d="m 1509.5,1676.5 c 62.33,-0.17 124.67,0 187,0.5 93.8,8.8 146.63,59.96 158.5,153.5 6.6,48.45 -0.4,94.79 -21,139 -26.8,46.35 -66.97,73.18 -120.5,80.5 -5.99,0.8 -11.99,1.47 -18,2 -62,0.5 -124,0.67 -186,0.5 0,-125.33 0,-250.67 0,-376 z m 83,76 c 31,-0.17 62,0 93,0.5 34.69,4.05 59.19,21.88 73.5,53.5 15.61,39.49 15.28,78.82 -1,118 -16.18,32.86 -42.68,50.36 -79.5,52.5 -28.66,0.5 -57.33,0.67 -86,0.5 0,-75 0,-150 0,-225 z"
       id="path81" />
  </g>
  <g
     id="g82"
     transform="translate(-666.37514,-1228.3764)">
    <path
       style="opacity:0.979"
       fill="#fefefe"
       d="m 2286.5,1676.5 c 103.33,0 206.67,0 310,0 0,25 0,50 0,75 -75.67,0 -151.33,0 -227,0 0,25.33 0,50.67 0,76 75.67,0 151.33,0 227,0 0,25 0,50 0,75 -75.67,0 -151.33,0 -227,0 0,24.67 0,49.33 0,74 75.67,0 151.33,0 227,0 0,25.33 0,50.67 0,76 -103.33,0 -206.67,0 -310,0 0,-125.33 0,-250.67 0,-376 z"
       id="path82" />
  </g>
</svg>
