<svg width="754" height="143" viewBox="0 0 754 143" fill="none" xmlns="http://www.w3.org/2000/svg">
<path d="M709.96 53.45V50.06H725.32V53.45H719.74V71H715.54V53.45H709.96ZM728.384 71V50.06H733.154L739.814 65.63L746.474 50.06H751.214V71H747.014V57.38L741.404 71H738.224L732.584 57.38V71H728.384Z" fill="white"/>
<path d="M191.105 55.7588C191.105 57.2529 191.794 58.7178 193.171 60.1533C194.548 61.5889 196.452 62.7168 198.884 63.5371C201.315 64.3574 204.055 65.1191 207.102 65.8223C214.074 67.5508 219.245 69.8359 222.614 72.6777C226.013 75.4902 227.712 79.4453 227.712 84.543V84.6309C227.712 90.6953 225.471 95.4268 220.988 98.8252C216.535 102.194 210.896 103.879 204.069 103.879C191.296 103.879 182.258 99.543 176.955 90.8711L185.964 85.4658C190.944 91.5303 197.067 94.5479 204.333 94.5186C207.146 94.5186 209.768 93.6543 212.199 91.9258C214.631 90.1973 215.847 88.1465 215.847 85.7734C215.847 83.4004 214.836 81.4668 212.814 79.9727C210.822 78.4785 206.486 76.9844 199.807 75.4902C193.127 73.9961 188.059 71.8721 184.602 69.1182C181.174 66.335 179.46 62.2334 179.46 56.8135V56.7256C179.46 51.1592 181.628 46.7793 185.964 43.5859C190.329 40.3633 195.734 38.752 202.18 38.752C212.668 38.7227 220.52 42.2529 225.734 49.3428C221.896 51.8623 219.055 53.752 217.209 55.0117C212.697 50.3242 207.468 47.9951 201.521 48.0244C198.942 48.0244 196.555 48.7568 194.357 50.2217C192.189 51.6865 191.105 53.5322 191.105 55.7588ZM280.622 83.4004H245.686V83.4883C246.271 86.916 247.678 89.8457 249.904 92.2773C252.131 94.6797 254.899 95.8809 258.21 95.8809C262.839 95.8809 266.647 93.7861 269.636 89.5967L278.293 93.376C276.008 97.1553 273.239 99.8945 269.987 101.594C266.765 103.264 262.663 104.099 257.683 104.099C250.476 104.099 244.763 101.784 240.544 97.1553C236.354 92.5264 234.201 86.8867 234.084 80.2363V80.1484C234.084 73.2344 236.281 67.4922 240.676 62.9219C245.07 58.3223 250.812 56.0225 257.902 56.0225C264.992 56.0225 270.544 58.6592 274.558 63.9326C278.601 69.1768 280.622 75.666 280.622 83.4004ZM265.461 67.4043C263.381 65.3242 260.642 64.2842 257.243 64.2842C253.845 64.2842 251.12 65.4561 249.069 67.7998C247.048 70.1436 245.92 73.0293 245.686 76.457H268.845C268.669 72.502 267.541 69.4844 265.461 67.4043ZM299.782 57.1211V64.2842C301.628 61.3545 303.752 59.2451 306.154 57.9561C308.586 56.667 311.501 56.0225 314.899 56.0225C320.612 56.0225 324.729 57.8096 327.248 61.3838C329.768 64.958 331.027 69.499 331.027 75.0068V103H319.602V77.0723C319.602 69.5723 316.481 65.8223 310.241 65.8223C306.755 65.8223 304.177 66.877 302.507 68.9863C300.866 71.0957 300.046 73.8203 300.046 77.1602V103H288.708V57.1211H299.782ZM377.434 103V95.8809C373.566 101.271 368.439 103.967 362.053 103.967C355.666 103.967 350.554 101.682 346.716 97.1113C342.878 92.5117 340.959 86.7402 340.959 79.7969V79.709C340.959 72.209 343.054 66.3936 347.243 62.2627C351.433 58.1025 356.516 56.0225 362.492 56.0225C368.469 56.0225 373.317 58.4834 377.038 63.4053V38.1807H388.464V103H377.434ZM377.214 79.9727C377.214 75.4023 376.013 71.8428 373.61 69.2939C371.237 66.7451 368.205 65.4707 364.514 65.4707C360.822 65.4707 357.907 66.8623 355.769 69.6455C353.63 72.4287 352.561 76.0615 352.561 80.5439C352.561 85.0264 353.747 88.5273 356.12 91.0469C358.493 93.5664 361.511 94.8262 365.173 94.8262C368.835 94.8262 371.721 93.4199 373.83 90.6074C375.969 87.7656 377.097 84.25 377.214 80.0605V79.9727ZM417.424 103V50.0898H397.517V39.543H449.636V50.0898H429.772V103H417.424ZM446.34 80.1484C446.34 72.4141 448.742 66.4668 453.547 62.3066C458.352 58.1172 464.328 56.0225 471.477 56.0225C478.625 56.0225 484.367 58.3076 488.703 62.8779C493.039 67.4189 495.207 73.1172 495.207 79.9727V80.0605C494.973 87.6777 492.526 93.5957 487.868 97.8145C483.21 102.004 477.248 104.099 469.982 104.099C462.717 104.099 456.96 101.726 452.712 96.9795C448.464 92.2334 446.34 86.6523 446.34 80.2363V80.1484ZM457.854 80.1484C457.854 85.1875 459.099 88.9521 461.589 91.4424C464.079 93.9326 467.346 95.1777 471.389 95.1777C475.432 95.1777 478.493 93.7422 480.573 90.8711C482.653 88 483.693 84.2793 483.693 79.709C483.693 75.1387 482.463 71.5498 480.002 68.9424C477.541 66.335 474.318 65.0312 470.334 65.0312C466.35 65.0312 463.273 66.4521 461.105 69.2939C458.938 72.1357 457.854 75.7246 457.854 80.0605V80.1484ZM505.358 103V38.1807H516.916V76.457L534.714 57.1211H548.645L531.11 75.0947L550.183 103H536.867L523.376 82.8291C520.681 85.7588 518.527 87.9854 516.916 89.5088V103H505.358ZM599.929 83.4004H564.992V83.4883C565.578 86.916 566.984 89.8457 569.211 92.2773C571.438 94.6797 574.206 95.8809 577.517 95.8809C582.146 95.8809 585.954 93.7861 588.942 89.5967L597.6 93.376C595.314 97.1553 592.546 99.8945 589.294 101.594C586.071 103.264 581.97 104.099 576.989 104.099C569.782 104.099 564.069 101.784 559.851 97.1553C555.661 92.5264 553.508 86.8867 553.391 80.2363V80.1484C553.391 73.2344 555.588 67.4922 559.982 62.9219C564.377 58.3223 570.119 56.0225 577.209 56.0225C584.299 56.0225 589.851 58.6592 593.864 63.9326C597.907 69.1768 599.929 75.666 599.929 83.4004ZM584.768 67.4043C582.688 65.3242 579.948 64.2842 576.55 64.2842C573.151 64.2842 570.427 65.4561 568.376 67.7998C566.354 70.1436 565.227 73.0293 564.992 76.457H588.151C587.976 72.502 586.848 69.4844 584.768 67.4043ZM619.089 57.1211V64.2842C620.935 61.3545 623.059 59.2451 625.461 57.9561C627.893 56.667 630.808 56.0225 634.206 56.0225C639.919 56.0225 644.035 57.8096 646.555 61.3838C649.074 64.958 650.334 69.499 650.334 75.0068V103H638.908V77.0723C638.908 69.5723 635.788 65.8223 629.548 65.8223C626.062 65.8223 623.483 66.877 621.813 68.9863C620.173 71.0957 619.353 73.8203 619.353 77.1602V103H608.015V57.1211H619.089ZM685.183 65.4707C683.161 64.4453 681.169 63.9326 679.206 63.9326C677.243 63.9326 675.515 64.4307 674.021 65.4268C672.526 66.4229 671.779 67.6826 671.779 69.2061C671.779 70.7295 672.937 71.9453 675.251 72.8535C677.565 73.7617 680.729 74.6553 684.743 75.5342C689.782 76.8525 693.532 78.5371 695.993 80.5879C698.454 82.6387 699.685 85.4951 699.685 89.1572C699.685 92.8193 698.674 95.8076 696.652 98.1221C694.66 100.407 692.272 101.96 689.489 102.78C686.735 103.601 683.659 104.011 680.261 104.011C669.831 104.011 662.873 100.407 659.387 93.2002C662.99 91.4717 665.832 90.124 667.912 89.1572C670.607 93.8447 674.899 96.1738 680.788 96.1445C683.19 96.1445 685.139 95.6611 686.633 94.6943C688.127 93.6982 688.874 92.3945 688.874 90.7832C688.874 89.1426 688.186 87.9707 686.809 87.2676C685.432 86.5352 682.59 85.5391 678.283 84.2793C673.977 83.0195 671.691 82.3604 671.428 82.3018C667.941 80.9834 665.378 79.3721 663.737 77.4678C662.097 75.5342 661.276 73.0586 661.276 70.041V69.9531C661.628 60.7246 667.736 56.1104 679.602 56.1104C688.83 56.1104 695.1 59.2012 698.41 65.3828C696.623 66.3496 693.869 67.7852 690.148 69.6895C688.889 67.9023 687.233 66.4961 685.183 65.4707Z" fill="white"/>
<path d="M102.7 71.5008C102.7 99.5016 79.7098 122.201 51.35 122.201C22.9902 122.201 0 99.5016 0 71.5008C0 43.4999 22.9902 20.8008 51.35 20.8008C79.7098 20.8008 102.7 43.4999 102.7 71.5008ZM21.0535 71.5008C21.0535 88.0213 34.6177 101.414 51.35 101.414C68.0823 101.414 81.6465 88.0213 81.6465 71.5008C81.6465 54.9803 68.0823 41.5878 51.35 41.5878C34.6177 41.5878 21.0535 54.9803 21.0535 71.5008Z" fill="url(#paint0_radial_769_598)"/>
<path d="M143 71.5C143 110.988 110.988 143 71.5 143C32.0116 143 0 110.988 0 71.5C0 32.0116 32.0116 0 71.5 0C110.988 0 143 32.0116 143 71.5ZM21.45 71.5C21.45 99.1419 43.8581 121.55 71.5 121.55C99.1419 121.55 121.55 99.1419 121.55 71.5C121.55 43.8581 99.1419 21.45 71.5 21.45C43.8581 21.45 21.45 43.8581 21.45 71.5Z" fill="url(#paint1_radial_769_598)"/>
<defs>
<radialGradient id="paint0_radial_769_598" cx="0" cy="0" r="1" gradientUnits="userSpaceOnUse" gradientTransform="translate(102.7 71.5008) rotate(-180) scale(102.7 101.4)">
<stop stop-color="#54F0FD"/>
<stop offset="1" stop-color="#C342F7"/>
</radialGradient>
<radialGradient id="paint1_radial_769_598" cx="0" cy="0" r="1" gradientUnits="userSpaceOnUse" gradientTransform="translate(0 71.5) scale(143)">
<stop stop-color="#54F0FD"/>
<stop offset="1" stop-color="#C342F7"/>
</radialGradient>
</defs>
</svg>
