<?xml version="1.0" encoding="UTF-8" standalone="no"?>
<svg
   version="1.1"
   width="2549.957"
   height="855.64301"
   style="clip-rule:evenodd;fill-rule:evenodd;image-rendering:optimizeQuality;shape-rendering:geometricPrecision;text-rendering:geometricPrecision"
   id="svg8"
   sodipodi:docname="logo.svg"
   inkscape:version="1.4 (e7c3feb100, 2024-10-09)"
   xmlns:inkscape="http://www.inkscape.org/namespaces/inkscape"
   xmlns:sodipodi="http://sodipodi.sourceforge.net/DTD/sodipodi-0.dtd"
   xmlns="http://www.w3.org/2000/svg"
   xmlns:svg="http://www.w3.org/2000/svg">
  <defs
     id="defs8" />
  <sodipodi:namedview
     id="namedview8"
     pagecolor="#ffffff"
     bordercolor="#000000"
     borderopacity="0.25"
     inkscape:showpageshadow="2"
     inkscape:pageopacity="0.0"
     inkscape:pagecheckerboard="0"
     inkscape:deskcolor="#d1d1d1"
     inkscape:zoom="0.30507347"
     inkscape:cx="1140.7088"
     inkscape:cy="298.2888"
     inkscape:window-width="1908"
     inkscape:window-height="1031"
     inkscape:window-x="0"
     inkscape:window-y="0"
     inkscape:window-maximized="1"
     inkscape:current-layer="g1" />
  <g
     id="g1">
    <path
       style="opacity:0.997"
       fill="#dda483"
       d="m 619.12486,341.87322 c 0.789,-0.283 1.456,-0.783 2,-1.5 -111.501,-0.833 -222.834,-0.666 -334,0.5 0.167,171.334 0,342.667 -0.5,514 -1.868,1.172 -3.702,1.005 -5.5,-0.5 -93.171,-69.665 -186.505001,-139.165 -280.0000006,-208.5 0.603,-2.179 1.27,-4.346 2,-6.5 -1.143,-118.83 -1.143,-246.497 0,-383 -0.331,-48.106 -1.331,-95.94 -3.00000002,-143.5 -0.17,-1.322 0.163,-2.489 1.00000002,-3.5 C 87.207859,53.821215 180.87486,18.821215 282.12486,4.373215 c 143.579,-15.9471 277.913,11.7196 403,83 11.49,7.334 22.823,14.834005 34,22.500005 1.165,186.294 1.332,372.627 0.5,559 -96.341,61.911 -192.841,123.411 -289.5,184.5 -2,0.667 -4,0.667 -6,0 -1.166,-128.097 -1.332,-256.264 -0.5,-384.5 64.835,-42.991 130.002,-85.324 195.5,-127 z"
       id="path1" />
  </g>
  <g
     id="g2"
     transform="translate(-176.37514,-54.626785)">
    <path
       style="opacity:0.169"
       fill="#de9c7b"
       d="m 176.5,167.5 c 1.669,47.56 2.669,95.394 3,143.5 -1.143,136.503 -1.143,264.17 0,383 -0.73,2.154 -1.397,4.321 -2,6.5 -1,-177.499 -1.333,-355.166 -1,-533 z"
       id="path2" />
  </g>
  <g
     id="g3"
     transform="translate(-176.37514,-54.626785)">
    <path
       style="opacity:0.988"
       fill="#dda483"
       d="m 1097.5,245.5 c 106,-0.333 212,0 318,1 1.32,26.321 1.32,52.654 0,79 -76,0 -152,0 -228,0 0,35.667 0,71.333 0,107 62.33,-0.167 124.67,0 187,0.5 0.66,12.427 1,24.927 1,37.5 0,12.573 -0.34,25.073 -1,37.5 -62.33,0.5 -124.67,0.667 -187,0.5 0.17,62.334 0,124.668 -0.5,187 -14.93,0.663 -29.93,0.996 -45,1 -15.22,-0.008 -30.22,-0.675 -45,-2 -0.83,-149.736 -0.66,-299.403 0.5,-449 z"
       id="path3" />
  </g>
  <g
     id="g4"
     transform="translate(-176.37514,-54.626785)">
    <path
       style="opacity:0.987"
       fill="#dea483"
       d="m 2154.5,351.5 c 44.43,-4.774 81.59,9.226 111.5,42 6.12,7.609 11.62,15.609 16.5,24 1.55,0.952 3.21,1.285 5,1 -3.22,-9.842 -6.72,-19.509 -10.5,-29 -0.82,-10.91 -0.65,-21.743 0.5,-32.5 28.57,-0.828 57.07,-0.662 85.5,0.5 0.67,105 0.67,210 0,315 -1.09,34.401 -11.09,65.734 -30,94 -28.57,34.4 -65.07,53.233 -109.5,56.5 -23.02,0.887 -46.02,0.553 -69,-1 -34.78,-4.505 -64.61,-19.338 -89.5,-44.5 -20.01,-22.059 -30.18,-47.893 -30.5,-77.5 27.33,-0.667 54.67,-0.667 82,0 2.82,9.088 6.32,17.921 10.5,26.5 5.68,8.343 13.18,14.51 22.5,18.5 18.63,6.94 37.96,9.273 58,7 35.14,-3.472 56.97,-22.305 65.5,-56.5 2.72,-15.87 4.05,-31.87 4,-48 3.2,-8.759 6.7,-17.426 10.5,-26 -1.01,-2.668 -2.68,-3.334 -5,-2 -27,48.996 -68.33,71.496 -124,67.5 -42.68,-4.265 -76.85,-23.765 -102.5,-58.5 -22.47,-32.918 -33.31,-69.251 -32.5,-109 -1.43,-56.269 18.9,-102.769 61,-139.5 20.9,-15.87 44.23,-25.37 70,-28.5 z m 20,79 c 40.99,-4.339 71.66,11.161 92,46.5 13.45,28.439 13.28,56.939 -0.5,85.5 -19.99,34.241 -49.83,49.074 -89.5,44.5 -27.03,-4.123 -46.53,-18.623 -58.5,-43.5 -10.13,-26.509 -11.13,-53.509 -3,-81 10.38,-28.211 30.21,-45.545 59.5,-52 z"
       id="path4" />
  </g>
  <g
     id="g5"
     transform="translate(-176.37514,-54.626785)">
    <path
       style="opacity:0.988"
       fill="#dda483"
       d="m 1580.5,351.5 c 43.27,-4.09 82.94,5.243 119,28 36.16,26.658 58.66,61.991 67.5,106 8.97,50.422 1.31,97.755 -23,142 -28.23,42.188 -67.4,66.688 -117.5,73.5 -23.81,1.438 -47.47,0.438 -71,-3 -44.12,-11.463 -77.95,-36.629 -101.5,-75.5 -28.74,-58.145 -31.07,-117.479 -7,-178 27.72,-55.268 72.22,-86.268 133.5,-93 z m 5,79 c 45.17,-4.271 75.83,14.563 92,56.5 3.92,12.99 6.25,26.324 7,40 -0.2,32.254 -12.2,59.254 -36,81 -20.15,13.979 -42.49,18.646 -67,14 -29.61,-8.943 -49.44,-28.11 -59.5,-57.5 -9.8,-33.104 -6.8,-64.77 9,-95 12.63,-20.732 30.8,-33.732 54.5,-39 z"
       id="path5" />
  </g>
  <g
     id="g6"
     transform="translate(-176.37514,-54.626785)">
    <path
       style="opacity:0.98"
       fill="#dea483"
       d="m 1985.5,351.5 c 8.67,0 17.33,0 26,0 0.17,29.002 0,58.002 -0.5,87 -15.76,-0.247 -31.6,0.253 -47.5,1.5 -20.31,2.238 -37.47,10.738 -51.5,25.5 -10.77,16.733 -17.11,35.066 -19,55 -0.33,58.333 -0.67,116.667 -1,175 -28.43,0.995 -56.93,1.329 -85.5,1 0,-113.333 0,-226.667 0,-340 28.34,-0.167 56.67,0 85,0.5 1.15,8.088 1.31,16.254 0.5,24.5 -1.04,13.74 -4.7,26.74 -11,39 -0.67,2 -0.67,4 0,6 0.56,0.522 1.23,0.855 2,1 2.68,-1.688 4.68,-4.022 6,-7 7.2,-19.199 18.37,-35.699 33.5,-49.5 18.79,-12.226 39.45,-18.226 62,-18 0.56,-0.383 0.89,-0.883 1,-1.5 z"
       id="path6" />
  </g>
  <g
     id="g7"
     transform="translate(-176.37514,-54.626785)">
    <path
       style="opacity:0.989"
       fill="#dda483"
       d="m 2545.5,351.5 c 41.05,-3.988 79.05,4.512 114,25.5 33.78,23.78 54.61,55.947 62.5,96.5 3.69,21.187 5.02,42.521 4,64 -1.13,3.733 -1.96,7.566 -2.5,11.5 -80.67,0.167 -161.34,0.667 -242,1.5 11.07,53.878 44.07,78.711 99,74.5 15.76,-2.715 28.92,-10.215 39.5,-22.5 5.35,-8.547 9.85,-17.547 13.5,-27 28.9,-1.328 57.73,-1.328 86.5,0 -7.66,53.349 -35.83,91.849 -84.5,115.5 -13.33,4.504 -27,7.837 -41,10 -35.3,4.106 -69.3,0.106 -102,-12 -49.97,-23.623 -80.47,-62.456 -91.5,-116.5 -7.3,-37.783 -5.64,-75.117 5,-112 19.53,-56.532 58.36,-91.698 116.5,-105.5 8.07,-0.411 15.73,-1.577 23,-3.5 z m 17,71 c 45.9,-0.757 71.57,21.576 77,67 -51.33,0 -102.67,0 -154,0 8.66,-42.005 34.33,-64.338 77,-67 z"
       id="path7" />
  </g>
  <g
     id="g8"
     transform="translate(-176.37514,-54.626785)">
    <path
       style="opacity:0.00799997"
       fill="#ff8080"
       d="m 463.5,395.5 c 111.166,-1.166 222.499,-1.333 334,-0.5 -0.544,0.717 -1.211,1.217 -2,1.5 -110.499,-0.999 -221.165,-1.333 -332,-1 z"
       id="path8" />
  </g>
</svg>
