<?xml version="1.0" encoding="UTF-8" standalone="no"?>
<svg
   version="1.0"
   width="779.000000pt"
   height="320.000000pt"
   viewBox="0 0 779.000000 320.000000"
   preserveAspectRatio="xMidYMid meet"
   id="svg3"
   sodipodi:docname="s3n.svg"
   inkscape:version="1.4 (e7c3feb100, 2024-10-09)"
   xmlns:inkscape="http://www.inkscape.org/namespaces/inkscape"
   xmlns:sodipodi="http://sodipodi.sourceforge.net/DTD/sodipodi-0.dtd"
   xmlns="http://www.w3.org/2000/svg"
   xmlns:svg="http://www.w3.org/2000/svg">
  <defs
     id="defs3" />
  <sodipodi:namedview
     id="namedview3"
     pagecolor="#ffffff"
     bordercolor="#000000"
     borderopacity="0.25"
     inkscape:showpageshadow="2"
     inkscape:pageopacity="0.0"
     inkscape:pagecheckerboard="0"
     inkscape:deskcolor="#d1d1d1"
     inkscape:document-units="pt"
     inkscape:zoom="0.66527599"
     inkscape:cx="518.58177"
     inkscape:cy="213.44525"
     inkscape:window-width="1908"
     inkscape:window-height="1049"
     inkscape:window-x="0"
     inkscape:window-y="0"
     inkscape:window-maximized="1"
     inkscape:current-layer="svg3" />
  <g
     transform="translate(0.000000,320.000000) scale(0.100000,-0.100000)"
     fill="#000000"
     stroke="none"
     id="g3"
     style="fill:#ee6f53;fill-opacity:1">
    <path
       d="M689 3103 c-70 -36 -113 -104 -123 -194 -16 -156 -123 -270 -276 -294 -59 -10 -111 -37 -144 -76 -54 -64 -56 -78 -56 -393 0 -261 2 -295 19 -331 38 -82 92 -120 194 -134 134 -19 214 -80 272 -206 34 -76 66 -114 120 -144 27 -14 107 -17 770 -21 l740 -5 48 -25 c60 -30 122 -96 150 -158 31 -71 35 -182 8 -253 -27 -72 -89 -142 -155 -177 l-51 -27 -740 -5 c-809 -5 -761 -2 -828 -64 -52 -49 -67 -98 -67 -231 0 -96 4 -128 19 -160 23 -49 63 -88 116 -112 37 -16 91 -17 790 -15 413 2 764 6 780 9 84 16 149 99 165 210 4 32 18 80 30 106 28 59 106 130 165 151 25 9 65 23 90 32 57 20 100 56 125 104 17 33 19 65 21 341 2 291 2 306 -18 344 -37 70 -99 115 -177 129 -106 20 -191 94 -237 207 -38 93 -68 132 -122 158 -43 21 -52 21 -754 21 -432 0 -731 4 -763 10 -178 34 -283 183 -261 370 13 108 86 206 189 253 47 22 55 22 803 27 l756 5 48 30 c75 46 99 101 103 237 5 137 -11 190 -73 246 -23 22 -60 45 -81 51 -26 7 -287 11 -790 11 l-750 0 -55 -27z"
       id="path1"
       style="fill:#ee6f53;fill-opacity:1" />
    <path
       d="M3115 3119 c-45 -13 -100 -63 -124 -112 -18 -37 -21 -62 -21 -165 0 -162 19 -209 110 -265 35 -22 37 -22 715 -27 l680 -5 46 -23 c72 -36 125 -87 156 -150 25 -50 28 -68 28 -152 0 -117 -22 -172 -96 -242 -92 -86 -54 -82 -819 -88 -741 -6 -701 -2 -762 -67 -47 -49 -58 -91 -58 -220 0 -131 13 -174 66 -227 64 -63 34 -61 759 -61 659 -1 660 -1 716 -23 76 -30 132 -81 166 -150 25 -51 28 -68 28 -157 0 -89 -3 -105 -27 -151 -15 -28 -49 -71 -76 -96 -90 -80 -68 -78 -796 -78 -710 0 -704 1 -768 -63 -55 -56 -68 -98 -68 -232 0 -95 4 -128 19 -160 22 -50 79 -101 128 -115 26 -8 252 -10 740 -8 l701 3 44 30 c47 33 98 119 98 165 0 59 30 129 81 184 49 54 134 106 173 106 31 0 118 44 143 71 57 62 55 34 57 904 l1 800 -24 48 c-31 63 -84 101 -172 122 -81 20 -150 63 -196 124 -43 55 -53 95 -62 226 -5 90 -11 118 -31 155 -27 49 -73 84 -129 100 -45 12 -1383 12 -1426 -1z"
       id="path2"
       style="fill:#ee6f53;fill-opacity:1" />
    <path
       d="M5560 3103 c-40 -21 -63 -42 -85 -78 l-30 -48 -3 -1350 c-1 -883 1 -1362 8 -1386 15 -56 63 -116 112 -139 91 -44 284 -37 359 12 21 14 51 47 66 73 l28 48 5 510 5 510 27 46 c62 106 159 162 278 162 107 0 149 -23 295 -163 67 -63 185 -173 263 -245 112 -102 149 -142 170 -185 l27 -55 5 -295 c6 -326 6 -328 74 -387 50 -44 97 -57 211 -58 114 0 160 13 213 59 76 67 70 -49 73 1466 2 1335 2 1356 -18 1400 -25 56 -80 106 -135 121 -25 6 -90 9 -158 7 -105 -3 -119 -6 -157 -31 -24 -15 -55 -46 -70 -69 l-28 -41 -5 -401 c-5 -392 -6 -402 -28 -451 -29 -63 -83 -119 -147 -153 -43 -23 -62 -27 -140 -27 -147 0 -161 11 -577 468 -167 183 -171 190 -178 392 -6 172 -12 195 -66 249 -53 52 -79 60 -214 64 -122 4 -126 3 -180 -25z"
       id="path3"
       style="fill:#ee6f53;fill-opacity:1" />
  </g>
</svg>
