<?xml version="1.0" encoding="UTF-8"?>
<!DOCTYPE svg PUBLIC "-//W3C//DTD SVG 1.1//EN" "http://www.w3.org/Graphics/SVG/1.1/DTD/svg11.dtd">
<svg xmlns="http://www.w3.org/2000/svg" version="1.1" width="1005px" height="1005px" style="shape-rendering:geometricPrecision; text-rendering:geometricPrecision; image-rendering:optimizeQuality; fill-rule:evenodd; clip-rule:evenodd" xmlns:xlink="http://www.w3.org/1999/xlink">
<g><path style="opacity:0.995" fill="#dda483" d="M 101.5,750.5 C 102.833,547.5 102.833,344.5 101.5,141.5C 101.33,140.178 101.663,139.011 102.5,138C 213.737,66.2558 335.071,24.9225 466.5,14C 628.552,4.87044 778.218,42.8704 915.5,128C 920.463,131.724 925.297,135.557 930,139.5C 930.667,353.167 930.667,566.833 930,780.5C 819.088,851.895 707.588,922.728 595.5,993C 593.559,993.743 591.726,993.576 590,992.5C 589.167,844.832 589.333,697.166 590.5,549.5C 665.36,501.208 740.36,452.708 815.5,404C 687.5,403.5 559.5,403.333 431.5,403.5C 431.667,600.5 431.5,797.5 431,994.5C 429.23,995.276 427.397,995.11 425.5,994C 318.148,913.666 210.482,833.833 102.5,754.5C 101.571,753.311 101.238,751.978 101.5,750.5 Z"/></g>
<g><path style="opacity:0.078" fill="#ad6243" d="M 101.5,141.5 C 102.833,344.5 102.833,547.5 101.5,750.5C 100.167,547.5 100.167,344.5 101.5,141.5 Z"/></g>
</svg>
